SplineFontDB: 3.2
FontName: Ambivium-Light
FullName: Ambivium Light
FamilyName: Ambivium
Weight: Light
Copyright: Copyright (c) 2015-19 by Maurizio M. Gavioli.\nAdaptation of Junction font by Caroline Hadilaksono, copyright (c) 2010 by Caroline Hadilaksono. SIL Open Font License (OFL).
FontLog: "2015-04-26: Initial web version from cleaned-up Junction originals (MMG)"
Version: 001.002
ItalicAngle: 0
UnderlinePosition: -100
UnderlineWidth: 50
Ascent: 750
Descent: 250
InvalidEm: 0
sfntRevision: 0x00010083
LayerCount: 2
Layer: 0 0 "Back" 1
Layer: 1 0 "Fore" 0
XUID: [1021 883 739783980 4760122]
UniqueID: 4207070
StyleMap: 0x0000
FSType: 4
OS2Version: 3
OS2_WeightWidthSlopeOnly: 0
OS2_UseTypoMetrics: 1
CreationTime: 1395272760
ModificationTime: 1595761139
PfmFamily: 17
TTFWeight: 300
TTFWidth: 5
LineGap: 0
VLineGap: 0
Panose: 2 11 3 3 0 0 0 2 0 4
OS2TypoAscent: 750
OS2TypoAOffset: 0
OS2TypoDescent: -250
OS2TypoDOffset: 0
OS2TypoLinegap: 0
OS2WinAscent: 841
OS2WinAOffset: 0
OS2WinDescent: 275
OS2WinDOffset: 0
HheadAscent: 750
HheadAOffset: 0
HheadDescent: -250
HheadDOffset: 0
OS2SubXSize: 650
OS2SubYSize: 600
OS2SubXOff: 0
OS2SubYOff: 75
OS2SupXSize: 650
OS2SupYSize: 600
OS2SupXOff: 0
OS2SupYOff: 350
OS2StrikeYSize: 50
OS2StrikeYPos: 330
OS2CapHeight: 770
OS2XHeight: 550
OS2Vendor: 'pyrs'
OS2CodePages: 20000083.00000000
OS2UnicodeRanges: 00000007.00000000.00000000.00000000
Lookup: 1 0 0 "'aalt' Access All Alternates in Latin lookup 0" { "'aalt' Access All Alternates in Latin lookup 0 subtable"  } ['aalt' ('latn' <'dflt' > ) ]
Lookup: 1 0 0 "'lnum' Lining Figures in Latin lookup 1" { "'lnum' Lining Figures in Latin lookup 1 subtable"  } ['lnum' ('latn' <'dflt' > ) ]
Lookup: 4 0 1 "'liga' Standard Ligatures in Latin lookup 2" { "'liga' Standard Ligatures in Latin lookup 2 subtable"  } ['liga' ('latn' <'dflt' > ) ]

StartChar: h
Encoding: 104 104 1
Width: 590
Flags: MW
HStem: 505 57<316.759 450.294>
VStem: 90 56<0 374.461 418 820> 471 56<0 483.355>
LayerCount: 2
Fore
SplineSet
146 0 m 1
 90 0 l 1
 90 820 l 1
 146 820 l 1
 146 418 l 1
 199 491 322 562 411 562 c 3
 494 562 527 499 527 395 c 2
 527 0 l 1
 471 0 l 1
 471 395 l 2
 471 458 454 505 411 505 c 3
 294 505 196 405 146 353 c 1
 146 0 l 1
EndSplineSet
Validated: 1
EndChar

StartChar: k
Encoding: 107 107 4
Width: 539
Flags: MW
VStem: 89 56<0 271.275 340 820>
LayerCount: 2
Fore
SplineSet
287 280 m 0
 345 213 485 56 547 0 c 1
 465 0 l 1
 448 9 373 93 313 164 c 2
 247 239 l 2
 224 263 203 279 188 279 c 3
 176 279 154 264 145 255 c 1
 145 0 l 1
 89 0 l 1
 89 820 l 1
 145 820 l 1
 145 340 l 1
 184 357 340 470 395 550 c 1
 456 550 l 1
 433 486 303 378 219 326 c 1
 244 317 268 300 287 280 c 0
EndSplineSet
Validated: 1
EndChar

StartChar: l
Encoding: 108 108 5
Width: 264
Flags: W
HStem: -12 52<169.385 225>
VStem: 93 55<62.5918 820>
LayerCount: 2
Fore
SplineSet
93 820 m 1
 148 820 l 1
 148 141 l 2
 148 116 148 83 165 65 c 0
 180 51 201 43 227 40 c 1
 227 40 225 -12 225 -12 c 1
 194 -11 150 -5 125 20 c 0
 93 52 93 104 93 141 c 2
 93 820 l 1
EndSplineSet
Validated: 1
EndChar

StartChar: m
Encoding: 109 109 6
Width: 893
Flags: MW
HStem: 502 60<287.944 415.536 635.749 763.582>
VStem: 87 56<0 378.47 425 550> 435 56<0 381.397> 782 56<0 483.355>
LayerCount: 2
Fore
SplineSet
143 0 m 1
 87 0 l 1
 87 550 l 1
 143 550 l 1
 143 425 l 1
 209 498 291 562 374 562 c 3
 444 562 479 523 492 426 c 1
 556 498 638 562 722 562 c 3
 805 562 838 499 838 395 c 2
 838 0 l 1
 782 0 l 1
 782 395 l 2
 782 458 766 502 722 502 c 3
 608 502 532 407 491 354 c 1
 491 0 l 1
 435 0 l 1
 435 395 l 2
 435 458 418 502 374 502 c 3
 268 502 187 407 143 354 c 1
 143 0 l 1
EndSplineSet
Validated: 1
EndChar

StartChar: n
Encoding: 110 110 7
Width: 590
Flags: MW
HStem: 502 60<316.168 450.834>
VStem: 90 56<0 373.314 425 550> 471 56<0 483.349>
LayerCount: 2
Fore
SplineSet
146 0 m 1
 90 0 l 1
 90 550 l 1
 146 550 l 1
 146 425 l 1
 221 497 322 562 411 562 c 3
 494 562 527 499 527 395 c 2
 527 0 l 1
 471 0 l 1
 471 395 l 2
 471 458 454 502 411 502 c 3
 298 502 204 412 146 353 c 1
 146 0 l 1
EndSplineSet
Validated: 1
EndChar

StartChar: o
Encoding: 111 111 8
Width: 572
Flags: W
HStem: -12 49<211.888 371.499> 512 50<211.888 371.499>
VStem: 59 56<151.062 401.654> 468 56<147.608 396.77>
LayerCount: 2
Fore
SplineSet
59 275 m 3
 59 486 175 562 292 562 c 3
 408 562 524 485 524 275 c 3
 524 62 408 -12 292 -12 c 3
 175 -12 59 58 59 275 c 3
468 275 m 3
 468 443 378 512 292 512 c 3
 205 512 115 448 115 275 c 3
 115 104 205 37 292 37 c 3
 378 37 468 101 468 275 c 3
EndSplineSet
Validated: 1
EndChar

StartChar: p
Encoding: 112 112 9
Width: 608
Flags: W
HStem: -12 55<262.357 414.491> 504 58<277.42 428.431>
VStem: 90 54<-270 84 131.525 386.14 428 550> 505 56<158.584 401.595>
LayerCount: 2
Fore
SplineSet
144 -270 m 1
 90 -270 l 1
 90 550 l 1
 144 550 l 1
 144 428 l 1
 188 504 285 562 371 562 c 3
 488 562 561 430 561 284 c 3
 561 97 476 -12 337 -12 c 3
 289 -12 200 29 144 84 c 1
 144 -270 l 1
371 504 m 3
 254 504 179 410 144 355 c 1
 144 152 l 1
 199 97 278 43 338 43 c 3
 439 43 505 138 505 284 c 3
 505 394 453 504 371 504 c 3
EndSplineSet
Validated: 1
EndChar

StartChar: q
Encoding: 113 113 10
Width: 610
Flags: W
HStem: -12 55<191.569 334.567> 506 56<205.694 362.933>
VStem: 59 56<147.931 391.29> 476 56<-270 129 176.172 424.844 478 550>
LayerCount: 2
Fore
SplineSet
249 -12 m 3
 132 -12 59 120 59 266 c 3
 59 453 144 562 283 562 c 3
 331 562 404 537 476 478 c 1
 476 550 l 1
 532 550 l 1
 532 -270 l 1
 476 -270 l 1
 476 129 l 1
 420 52 334 -12 249 -12 c 3
249 43 m 3
 366 43 441 153 476 209 c 1
 476 405 l 1
 420 459 342 506 283 506 c 3
 181 506 115 412 115 266 c 3
 115 156 167 43 249 43 c 3
EndSplineSet
Validated: 1
EndChar

StartChar: r
Encoding: 114 114 11
Width: 422
Flags: MW
HStem: 511 51<250.08 366.948>
VStem: 91 56<0 395.357 447 550>
LayerCount: 2
Fore
SplineSet
91 550 m 1
 147 550 l 1
 147 447 l 1
 191 527 255 562 307 562 c 3
 372 562 411 529 426 516 c 1
 386 475 l 1
 386 475 346 511 311 511 c 3
 234 511 170 408 147 355 c 1
 147 0 l 1
 91 0 l 1
 91 550 l 1
EndSplineSet
Validated: 1
EndChar

StartChar: s
Encoding: 115 115 12
Width: 488
Flags: W
HStem: -12 46<167.797 341.097> 516 46<172.1 337.512>
VStem: 80 55<363.103 480.751> 388 55<78.5677 199.298>
LayerCount: 2
Fore
SplineSet
135 415 m 3
 135 355 198 330 264 309 c 0
 352 283 443 256 443 146 c 3
 443 38 349 -12 257 -12 c 3
 181 -12 99 21 52 91 c 1
 52 91 89 123 89 123 c 1
 125 73 185 34 259 34 c 3
 325 34 388 69 388 141 c 3
 388 213 314 241 248 261 c 0
 166 285 80 317 80 410 c 3
 80 540 196 562 246 562 c 3
 312 562 368 542 407 506 c 1
 370 470 l 1
 340 498 306 516 246 516 c 3
 210 516 135 501 135 415 c 3
EndSplineSet
Validated: 1
EndChar

StartChar: t
Encoding: 116 116 13
Width: 384
Flags: W
HStem: -12 55<199.127 318.572> 500 52<50 123 179 316>
VStem: 123 56<62.1831 500 552 750>
LayerCount: 2
Fore
SplineSet
50 500 m 1
 50 552 l 1
 123 552 l 1
 123 750 l 1
 179 750 l 1
 179 552 l 1
 316 552 l 1
 316 500 l 1
 179 500 l 1
 179 156 l 2
 179 113 179 43 248 43 c 3
 284 43 309 54 335 77 c 1
 335 77 369 43 369 43 c 1
 329 7 279 -12 226 -12 c 3
 150 -12 123 54 123 156 c 2
 123 500 l 1
 50 500 l 1
EndSplineSet
Validated: 1
EndChar

StartChar: u
Encoding: 117 117 14
Width: 590
Flags: MW
HStem: -12 58<151.491 283.08>
VStem: 75 56<66.6451 550> 455 57<0 119 180.226 550>
LayerCount: 2
Fore
SplineSet
191 46 m 3
 301 46 397 141 455 201 c 1
 455 550 l 1
 512 550 l 1
 512 0 l 1
 455 0 l 1
 455 119 l 1
 387 48 278 -12 191 -12 c 3
 108 -12 75 51 75 155 c 2
 75 550 l 1
 131 550 l 1
 131 155 l 2
 131 92 147 46 191 46 c 3
EndSplineSet
Validated: 1
EndChar

StartChar: v
Encoding: 118 118 15
Width: 508
Flags: MW
LayerCount: 2
Fore
SplineSet
23 550 m 1
 92 550 l 1
 257 64 l 1
 310 302 402 499 430 550 c 1
 491 550 l 1
 375 342 289 0 289 0 c 1
 232 0 l 1
 23 550 l 1
EndSplineSet
Validated: 1
EndChar

StartChar: w
Encoding: 119 119 16
Width: 763
Flags: MW
DStem2: 91 550 30 550 0.277719 -0.960662<0 499.143> 221 68 246 0 0.269704 0.962943<0 444.546> 412 550 384 484 0.277865 -0.96062<55.6207 501.086>
LayerCount: 2
Fore
SplineSet
246 0 m 1
 189 0 l 1
 30 550 l 1
 91 550 l 1
 221 68 l 1
 356 550 l 1
 412 550 l 1
 549 68 l 1
 606 279 672 520 689 550 c 1
 744 550 l 1
 716 522 578 0 578 0 c 1
 557 0 541 0 524 0 c 1
 384 484 l 1
 344 339 288 145 246 0 c 1
EndSplineSet
Validated: 1
EndChar

StartChar: x
Encoding: 120 120 17
Width: 568
Flags: MW
DStem2: 51 0 123 0 0.597546 0.801835<43.0233 333.839 409.605 540.679 653.063 683.015> 143 550 67 550 0.572461 -0.819932<0 268.219 343.328 626.708>
LayerCount: 2
Fore
SplineSet
67 550 m 1
 143 550 l 1
 295 329 l 1
 345 403 439 532 456 550 c 1
 527 550 l 1
 478 496 370 343 327 282 c 1
 527 0 l 1
 450 0 l 1
 293 236 l 1
 293 236 123 0 123 0 c 1
 51 0 l 1
 51 0 261 281 261 281 c 1
 261 281 67 550 67 550 c 1
EndSplineSet
Validated: 1
EndChar

StartChar: y
Encoding: 121 121 18
Width: 499
Flags: W
HStem: -284 55<14.2182 72.9409>
DStem2: 85 550 26 550 0.358363 -0.933582<0 462.221>
LayerCount: 2
Fore
SplineSet
26 550 m 1
 85 550 l 1
 252 119 l 1
 328 306 419 526 439 550 c 1
 503 550 l 1
 475 513 433 418 243 -47 c 0
 218 -111 191 -178 142 -225 c 0
 94 -271 49 -281 16 -284 c 1
 16 -284 2 -229 2 -229 c 1
 60 -222 84 -203 104 -183 c 1
 103 -183 l 1
 131 -156 152 -127 191 -32 c 2
 221 42 l 1
 26 550 l 1
EndSplineSet
Validated: 1
EndChar

StartChar: z
Encoding: 122 122 19
Width: 502
Flags: W
HStem: 0 53<119 466.527> 498 52<54 385>
DStem2: 54 61 119 53 0.603787 0.797145<32.869 548.206>
LayerCount: 2
Fore
SplineSet
467 60 m 1
 467 10 l 1
 460 2 439 0 407 0 c 1
 54 0 l 1
 54 61 l 1
 385 498 l 1
 54 498 l 1
 54 550 l 1
 450 550 l 1
 450 490 l 1
 119 53 l 1
 409 53 l 1
 441 53 457 54 467 60 c 1
EndSplineSet
Validated: 1
EndChar

StartChar: d
Encoding: 100 100 20
Width: 625
Flags: W
HStem: -8 63<192.21 341.307> 498 64<207.534 367.446>
VStem: 58 59<153.213 390.28> 478 56<176.447 415.27 464 820>
LayerCount: 2
Fore
SplineSet
250 -8 m 3
 133 -8 58 120 58 266 c 3
 58 453 146 562 285 562 c 3
 336 562 422 526 478 464 c 1
 478 820 l 1
 534 820 l 1
 534 127 l 2
 534 97 542 54 588 27 c 1
 548 -11 l 1
 497 12 485 79 479 118 c 1
 412 44 333 -8 250 -8 c 3
249 55 m 3
 363 55 422 121 478 208 c 1
 478 396 l 1
 417 457 344 498 285 498 c 3
 183 498 117 412 117 266 c 3
 117 156 174 55 249 55 c 3
EndSplineSet
Validated: 1
EndChar

StartChar: period
Encoding: 46 46 21
Width: 191
Flags: W
HStem: -7 99<59.6992 134.67>
VStem: 52 90<-0.0430908 85.3976>
LayerCount: 2
Fore
SplineSet
52 44 m 3
 52 72 72 92 98 92 c 3
 123 92 142 72 142 44 c 3
 142 14 123 -7 98 -7 c 3
 72 -7 52 14 52 44 c 3
EndSplineSet
Validated: 1
EndChar

StartChar: comma
Encoding: 44 44 22
Width: 186
Flags: W
HStem: -7 93<56.4239 110.266>
VStem: 47 89<4.8411 77.095>
LayerCount: 2
Fore
SplineSet
47 40 m 3
 47 67 66 86 89 86 c 3
 122 86 136 53 136 12 c 3
 136 -39 112 -88 76 -137 c 1
 76 -137 53 -124 53 -124 c 1
 82 -88 103 -59 111 -7 c 1
 73 -7 47 13 47 40 c 3
EndSplineSet
Validated: 1
EndChar

StartChar: colon
Encoding: 58 58 23
Width: 241
Flags: W
HStem: -7 99<85.4355 159.723> 362 100<86.0419 159.137>
VStem: 78 89<-0.0430908 85.3976 369.23 455.165>
LayerCount: 2
Fore
SplineSet
78 44 m 3
 78 72 97 92 124 92 c 3
 148 92 167 72 167 44 c 3
 167 14 148 -7 124 -7 c 3
 97 -7 78 14 78 44 c 3
78 414 m 3
 78 441 97 462 124 462 c 3
 148 462 167 441 167 414 c 3
 167 384 148 362 124 362 c 3
 97 362 78 384 78 414 c 3
EndSplineSet
Validated: 1
EndChar

StartChar: semicolon
Encoding: 59 59 24
Width: 246
Flags: W
HStem: -7 93<92.1293 145.136> 362 100<86.0419 159.137>
VStem: 83 89<4.77724 77.095 372.695 451.914>
LayerCount: 2
Fore
SplineSet
83 40 m 3
 83 67 101 86 125 86 c 3
 158 86 172 53 172 12 c 3
 172 -39 147 -98 111 -147 c 1
 102 -142 95 -139 89 -134 c 1
 118 -98 138 -59 146 -7 c 1
 108 -7 83 13 83 40 c 3
78 414 m 3
 78 441 97 462 124 462 c 3
 148 462 167 441 167 414 c 3
 167 384 148 362 124 362 c 3
 97 362 78 384 78 414 c 3
EndSplineSet
Validated: 1
EndChar

StartChar: question
Encoding: 63 63 25
Width: 488
Flags: W
HStem: -7 93<210.665 280.877> 770 51<176.329 348.985>
VStem: 166 48<238.376 338.201> 204 83<-0.999302 80.2516> 398 56<574.947 722.765>
LayerCount: 2
Fore
SplineSet
398 647 m 3xe8
 398 692 386 770 256 770 c 3
 162 770 102 689 81 657 c 1
 48 689 l 1
 48 689 137 821 256 821 c 3
 426 821 454 710 454 647 c 3
 454 538 373 467 302 405 c 0
 252 362 214 322 214 291 c 3
 214 259 234 236 265 208 c 1
 225 176 l 1
 195 205 166 241 166 292 c 3
 166 354 210 399 268 452 c 0
 329 507 398 573 398 647 c 3xe8
204 40 m 3xd8
 204 67 223 86 246 86 c 3
 270 86 287 67 287 40 c 3
 287 13 270 -7 246 -7 c 3
 223 -7 204 13 204 40 c 3xd8
EndSplineSet
Validated: 1
EndChar

StartChar: endash
Encoding: 8211 8211 26
Width: 645
Flags: W
HStem: 249 47<59 594>
LayerCount: 2
Fore
SplineSet
594 296 m 1
 594 249 l 1
 59 249 l 1
 59 296 l 1
 594 296 l 1
EndSplineSet
Validated: 1
EndChar

StartChar: hyphen
Encoding: 45 45 27
Width: 330
Flags: W
HStem: 246 52<62 273>
VStem: 62 211<246 298>
LayerCount: 2
Fore
SplineSet
273 298 m 1
 273 246 l 1
 62 246 l 1
 62 298 l 1
 273 298 l 1
EndSplineSet
Validated: 1
EndChar

StartChar: Z
Encoding: 90 90 28
Width: 597
Flags: W
HStem: 0 64<125 550.045> 706 64<65 458>
DStem2: 55 72 125 64 0.536188 0.844098<30.7804 751.242>
LayerCount: 2
Fore
SplineSet
551 75 m 1
 551 75 551 10 551 10 c 1
 531 2 493 0 445 0 c 2
 55 0 l 1
 55 72 l 1
 458 706 l 1
 65 706 l 1
 65 770 l 1
 529 770 l 1
 529 700 l 1
 125 64 l 1
 125 64 447 64 447 64 c 1
 487 64 531 67 551 75 c 1
EndSplineSet
Validated: 1
EndChar

StartChar: D
Encoding: 68 68 29
Width: 698
Flags: W
HStem: 0 57<149 429.01> 719 56<150.382 422.523>
VStem: 90 59<57 709.905> 584 59<236.915 544.421>
LayerCount: 2
Fore
SplineSet
90 0 m 1
 90 759 l 1
 181 770 228 775 287 775 c 3
 469 775 643 717 643 380 c 3
 643 138 517 0 336 0 c 2
 90 0 l 1
584 380 m 3
 584 580 521 719 289 719 c 3
 247 719 167 710 149 707 c 1
 149 57 l 1
 336 57 l 2
 478 57 584 179 584 380 c 3
EndSplineSet
Validated: 1
EndChar

StartChar: A
Encoding: 65 65 30
Width: 694
Flags: MW
HStem: 269 57<216 486>
DStem2: 32 0 96 0 0.346044 0.938218<22.1468 309.132 369.531 771.432> 671 0 486 326 0.344971 -0.938613<-772.404 -369.808 -309.062 -22.0781>
LayerCount: 2
Fore
SplineSet
316 770 m 1
 388 770 l 1
 671 0 l 1
 607 0 l 1
 507 269 l 1
 196 269 l 1
 196 269 96 0 96 0 c 1
 32 0 l 1
 316 770 l 1
350 705 m 1
 350 705 331 635 216 326 c 1
 486 326 l 1
 371 635 350 705 350 705 c 1
EndSplineSet
Validated: 1
EndChar

StartChar: B
Encoding: 66 66 31
Width: 621
Flags: W
HStem: 0 57<150 428.493> 360 58<150 394.862> 719 56<151.953 408.982>
VStem: 90 60<57 360 418 709.189> 473 57<482.68 657.803> 507 58<124.358 293.582>
LayerCount: 2
Fore
SplineSet
296 775 m 3xf4
 479 775 530 667 530 563 c 3xf8
 530 487 492 430 441 399 c 1
 545 354 565 269 565 223 c 3
 565 139 547 0 309 0 c 1
 90 0 l 1
 90 758 l 1
 119 762 l 2
 166 768 227 775 296 775 c 3xf4
150 360 m 1
 150 57 l 1
 309 57 l 2
 504 57 507 163 507 223 c 3xf4
 507 260 487 360 322 360 c 2
 150 360 l 1
473 565 m 3xf8
 473 677 413 709 338 717 c 0
 323 718 308 719 294 719 c 3
 247 719 195 713 150 706 c 1
 150 418 l 1
 240 418 l 2
 394 418 473 448 473 565 c 3xf8
EndSplineSet
Validated: 1
EndChar

StartChar: G
Encoding: 71 71 32
Width: 734
Flags: W
HStem: -15 61<297.528 510.338> 308 60<413.22 598> 728 57<322.766 503.086>
VStem: 64 63<230.752 509.269> 598 55<109.107 308>
LayerCount: 2
Fore
SplineSet
653 368 m 1
 653 141 l 2
 653 53 534 -15 421 -15 c 3
 131 -15 64 208 64 368 c 3
 64 681 267 785 416 785 c 3
 542 785 623 702 645 676 c 1
 604 636 l 1
 604 636 514 728 420 728 c 3
 303 728 127 628 127 368 c 3
 127 238 180 46 417 46 c 3
 483 46 598 97 598 150 c 2
 598 308 l 1
 482 308 l 2
 463 308 434 308 412 316 c 1
 412 371 l 1
 438 368 466 368 486 368 c 2
 653 368 l 1
EndSplineSet
Validated: 1
EndChar

StartChar: underscore
Encoding: 95 95 33
Width: 645
Flags: W
HStem: -66 45<59 594>
LayerCount: 2
Fore
SplineSet
594 -21 m 1
 594 -66 l 1
 59 -66 l 1
 59 -21 l 1
 594 -21 l 1
EndSplineSet
Validated: 1
EndChar

StartChar: C
Encoding: 67 67 34
Width: 628
Flags: W
HStem: -15 60<280.068 480.818> 720 65<283.908 461.367>
VStem: 64 62<230.371 517.015>
LayerCount: 2
Fore
SplineSet
580 689 m 1
 540 650 l 1
 540 650 463 720 368 720 c 3
 248 720 126 602 126 362 c 3
 126 184 237 45 368 45 c 3
 483 45 549 103 572 127 c 1
 609 91 l 1
 564 46 491 -15 363 -15 c 3
 194 -15 64 149 64 362 c 3
 64 640 213 785 369 785 c 3
 505 785 566 709 580 689 c 1
EndSplineSet
Validated: 1
EndChar

StartChar: asciicircum
Encoding: 94 94 35
Width: 638
Flags: MW
DStem2: 49 0 100 0 0.416194 0.909276<21.2259 569.584> 349 544 323 501 0.414811 -0.909908<28.3409 576.293>
LayerCount: 2
Fore
SplineSet
298 544 m 1
 349 544 l 1
 597 0 l 1
 545 0 l 1
 323 501 l 1
 100 0 l 1
 49 0 l 1
 49 0 298 544 298 544 c 1
EndSplineSet
Validated: 1
EndChar

StartChar: E
Encoding: 69 69 36
Width: 546
Flags: W
HStem: 0 57<150 508> 371 57<150 443> 714 56<150 494>
VStem: 91 59<57 371 428 714>
LayerCount: 2
Fore
SplineSet
508 0 m 1
 91 0 l 1
 91 770 l 1
 402 770 l 2
 442 770 476 772 494 773 c 1
 494 714 l 1
 150 714 l 1
 150 428 l 1
 443 428 l 1
 443 371 l 1
 150 371 l 1
 150 57 l 1
 416 57 l 2
 456 57 490 60 508 61 c 1
 508 0 l 1
EndSplineSet
Validated: 1
EndChar

StartChar: F
Encoding: 70 70 37
Width: 524
Flags: W
HStem: 0 21G<91 150> 371 57<150 443> 715 55<150 494>
VStem: 91 59<0 371 428 715>
LayerCount: 2
Fore
SplineSet
150 0 m 1
 91 0 l 1
 91 770 l 1
 402 770 l 2
 442 770 476 772 494 773 c 1
 494 715 l 1
 150 715 l 1
 150 428 l 1
 443 428 l 1
 443 371 l 1
 150 371 l 1
 150 0 l 1
EndSplineSet
Validated: 1
EndChar

StartChar: H
Encoding: 72 72 38
Width: 726
Flags: W
HStem: 0 21G<90 149 587 646> 370 57<149 587>
VStem: 90 59<0 370 427 770> 587 59<0 370 427 770>
LayerCount: 2
Fore
SplineSet
149 0 m 1
 90 0 l 1
 90 770 l 1
 149 770 l 1
 149 427 l 1
 587 427 l 1
 587 770 l 1
 646 770 l 1
 646 0 l 1
 587 0 l 1
 587 370 l 1
 149 370 l 1
 149 0 l 1
EndSplineSet
Validated: 1
EndChar

StartChar: I
Encoding: 73 73 39
Width: 242
Flags: MW
VStem: 93 59<0 770>
LayerCount: 2
Fore
SplineSet
152 0 m 1
 93 0 l 1
 93 770 l 1
 152 770 l 1
 152 0 l 1
EndSplineSet
Validated: 1
EndChar

StartChar: J
Encoding: 74 74 40
Width: 270
Flags: W
VStem: 123 60<-113.448 770>
LayerCount: 2
Fore
SplineSet
123 770 m 1
 183 770 l 1
 183 -28 l 2
 183 -177 89 -236 24 -261 c 1
 24 -261 -2 -201 -2 -201 c 1
 61 -179 123 -126 123 -28 c 2
 123 770 l 1
EndSplineSet
Validated: 1
EndChar

StartChar: O
Encoding: 79 79 41
Width: 741
Flags: W
HStem: -15 57<278.608 475.629> 729 56<279.88 472.642>
VStem: 64 59<229.968 539.045> 628 59<230.035 537.936>
LayerCount: 2
Fore
SplineSet
378 785 m 3
 522 785 686 695 687 386 c 3
 687 71 530 -15 375 -15 c 3
 231 -15 64 70 64 384 c 3
 64 697 231 785 378 785 c 3
378 729 m 3
 264 729 123 646 123 386 c 3
 123 122 264 42 375 42 c 3
 495 42 627 121 628 384 c 3
 628 642 495 729 378 729 c 3
EndSplineSet
Validated: 1
EndChar

StartChar: K
Encoding: 75 75 42
Width: 598
Flags: MW
VStem: 90 60<0 328.969 388 770>
DStem2: 150 388 150 302 0.625305 0.780381<65.3269 483.821> 459 182 317 298 0.531531 -0.847039<-225.507 178.08>
LayerCount: 2
Fore
SplineSet
90 770 m 1
 150 770 l 1
 150 388 l 1
 447 770 l 1
 525 770 l 1
 237 402 l 1
 271 398 321 382 352 346 c 0
 371 324 415 254 459 182 c 0
 499 117 545 43 577 0 c 1
 504 0 l 1
 487 20 439 101 398 168 c 0
 364 224 332 278 317 298 c 0
 286 334 247 351 204 351 c 0
 191 351 155 314 150 302 c 1
 150 0 l 1
 90 0 l 1
 90 770 l 1
EndSplineSet
Validated: 1
EndChar

StartChar: L
Encoding: 76 76 43
Width: 541
Flags: W
HStem: 0 57<150 508>
VStem: 91 59<57 770>
LayerCount: 2
Fore
SplineSet
91 0 m 1
 91 770 l 1
 150 770 l 1
 150 57 l 1
 416 57 l 2
 456 57 490 60 508 61 c 1
 508 0 l 1
 91 0 l 1
EndSplineSet
Validated: 1
EndChar

StartChar: M
Encoding: 77 77 44
Width: 835
Flags: MW
VStem: 89 60<0 628> 698 59<0 628>
DStem2: 152 770 149 628 0.35241 -0.935846<131.833 766.152> 422 53 454 0 0.36216 0.932116<0 635.923>
LayerCount: 2
Fore
SplineSet
149 0 m 1
 89 0 l 1
 89 770 l 1
 152 770 l 1
 406 102 l 1
 422 53 l 1
 439 102 l 1
 695 770 l 1
 757 770 l 1
 757 0 l 1
 698 0 l 1
 698 0 698 628 698 628 c 1
 454 0 l 1
 392 0 l 1
 149 628 l 1
 149 628 149 0 149 0 c 1
EndSplineSet
Validated: 1
EndChar

StartChar: N
Encoding: 78 78 45
Width: 708
Flags: MW
VStem: 90 59<0 678> 568 60<97 770>
DStem2: 155 770 149 678 0.521144 -0.853468<75.3922 789.617>
LayerCount: 2
Fore
SplineSet
149 0 m 1
 90 0 l 1
 90 770 l 1
 155 770 l 1
 568 97 l 1
 568 97 568 770 568 770 c 1
 628 770 l 1
 628 0 l 1
 563 0 l 1
 563 0 149 678 149 678 c 1
 149 678 149 0 149 0 c 1
EndSplineSet
Validated: 1
EndChar

StartChar: T
Encoding: 84 84 46
Width: 542
Flags: MW
HStem: 713 57<12 243 302 538>
VStem: 243 59<0 713>
LayerCount: 2
Fore
SplineSet
12 713 m 1
 12 770 l 1
 538 770 l 1
 538 713 l 1
 302 713 l 1
 302 0 l 1
 243 0 l 1
 243 713 l 1
 12 713 l 1
EndSplineSet
Validated: 1
EndChar

StartChar: Q
Encoding: 81 81 47
Width: 741
Flags: W
HStem: -138 55<453.853 625.649> 729 56<279.88 472.642>
VStem: 64 59<232.59 539.045> 628 59<226.571 537.936>
LayerCount: 2
Fore
SplineSet
378 785 m 3
 522 785 686 695 687 386 c 3
 687 102 550 3 402 -15 c 1
 426 -44 464 -83 536 -83 c 3
 561 -83 592 -79 621 -71 c 1
 621 -71 639 -125 639 -125 c 1
 609 -133 561 -138 536 -138 c 3
 412 -138 352 -56 335 -12 c 1
 199 6 64 106 64 384 c 3
 64 697 231 785 378 785 c 3
378 729 m 3
 264 729 123 646 123 386 c 3
 123 122 264 42 375 42 c 3
 495 42 627 121 628 384 c 3
 628 642 495 729 378 729 c 3
EndSplineSet
Validated: 1
EndChar

StartChar: P
Encoding: 80 80 48
Width: 603
Flags: MW
HStem: 246 62<231.579 413.395> 727 58<228.118 403.326>
VStem: 90 60<0 314 365.613 682.7 726 770> 500 56<410.283 630.569>
LayerCount: 2
Fore
SplineSet
150 0 m 1
 90 0 l 1
 90 770 l 1
 150 770 l 1
 150 726 l 1
 210 762 278 785 334 785 c 3
 465 785 556 683 556 536 c 3
 556 346 471 246 326 246 c 3
 262 246 203 277 150 314 c 1
 150 0 l 1
500 536 m 3
 500 648 426 727 304 727 c 3
 250 727 199 705 150 668 c 1
 150 382 l 1
 202 336 264 308 331 308 c 3
 431 308 500 382 500 536 c 3
EndSplineSet
Validated: 1
EndChar

StartChar: R
Encoding: 82 82 49
Width: 639
Flags: MW
HStem: 331 56<149 293.666> 725 60<222.208 410.665>
VStem: 90 59<0 331 387 680.689 726 770> 484 58<470.953 652.209>
LayerCount: 2
Fore
SplineSet
149 0 m 1
 90 0 l 1
 90 770 l 1
 149 770 l 1
 149 726 l 1
 219 770 277 785 338 785 c 3
 443 785 542 707 542 569 c 3
 542 418 445 352 353 333 c 1
 407 288 453 225 493 161 c 0
 531 100 570 41 617 0 c 1
 545 0 l 1
 513 27 475 80 438 138 c 0
 384 222 322 309 252 331 c 1
 149 331 l 1
 149 0 l 1
317 387 m 2
 390 388 483 423 484 570 c 0
 484 663 423 725 324 725 c 3
 260 725 207 706 149 667 c 1
 149 387 l 1
 317 387 l 2
EndSplineSet
Validated: 1
EndChar

StartChar: S
Encoding: 83 83 50
Width: 604
Flags: W
HStem: -15 56<220.119 414.953> 729 56<217.905 399.909>
VStem: 89 58<515.474 662.165> 500 58<122.599 274.133>
LayerCount: 2
Fore
SplineSet
62 129 m 1
 104 166 l 1
 157 88 224 41 320 41 c 3
 417 41 500 98 500 203 c 3
 500 304 406 342 308 372 c 0
 197 405 89 445 89 577 c 3
 89 756 234 785 302 785 c 3
 392 785 455 755 504 699 c 1
 504 699 462 662 462 662 c 1
 423 700 378 729 302 729 c 3
 251 729 147 704 147 577 c 3
 147 495 234 455 325 427 c 0
 436 392 558 346 558 203 c 3
 558 56 444 -15 318 -15 c 3
 203 -15 125 31 62 129 c 1
EndSplineSet
Validated: 1
EndChar

StartChar: U
Encoding: 85 85 51
Width: 669
Flags: W
HStem: -12 58<240.131 433.714>
VStem: 90 60<137.824 770> 528 60<137.125 770>
LayerCount: 2
Fore
SplineSet
588 235 m 2
 587 13 421 -12 340 -12 c 3
 257 -12 91 15 90 235 c 2
 90 770 l 1
 150 770 l 1
 150 237 l 2
 150 69 276 46 340 46 c 3
 402 46 527 73 528 235 c 2
 528 770 l 1
 588 770 l 1
 588 235 l 2
EndSplineSet
Validated: 1
EndChar

StartChar: braceleft
Encoding: 123 123 52
Width: 454
Flags: W
HStem: -273 66<251.806 365.723> 264 31<86 146.14> 766 66<251.806 366.588>
VStem: 185 55<-198.187 234.962 325.604 756.752>
CounterMasks: 1 e0
LayerCount: 2
Fore
SplineSet
280 832 m 3
 325 832 366 814 383 805 c 1
 383 805 361 754 361 754 c 1
 361 754 317 766 280 766 c 3
 246 766 240 713 240 686 c 2
 240 379 l 2
 240 376 236 319 166 279 c 1
 239 239 240 184 240 180 c 2
 240 -127 l 2
 240 -154 246 -207 280 -207 c 3
 319 -207 346 -201 361 -195 c 1
 361 -195 383 -246 383 -246 c 1
 383 -246 327 -273 280 -273 c 3
 199 -273 185 -177 185 -127 c 2
 185 179 l 2
 185 219 156 264 86 264 c 1
 86 295 l 1
 156 295 185 340 185 380 c 2
 185 686 l 2
 185 735 199 832 280 832 c 3
EndSplineSet
Validated: 1
EndChar

StartChar: V
Encoding: 86 86 53
Width: 670
Flags: MW
DStem2: 94 770 30 770 0.336336 -0.941742<0 742.9> 340 69 374 0 0.33742 0.941354<0 742.557>
LayerCount: 2
Fore
SplineSet
374 0 m 1
 305 0 l 1
 305 0 30 770 30 770 c 1
 94 770 l 1
 94 770 340 69 340 69 c 1
 585 770 l 1
 650 770 l 1
 374 0 l 1
EndSplineSet
Validated: 1
EndChar

StartChar: W
Encoding: 87 87 54
Width: 962
Flags: MW
DStem2: 92 770 30 770 0.27241 -0.962181<0 705.786> 274 88 299 0 0.261821 0.965116<0 639.663> 521 770 487 693 0.263117 -0.964764<65.3408 705.33>
LayerCount: 2
Fore
SplineSet
299 0 m 1
 248 0 l 1
 248 0 30 770 30 770 c 1
 92 770 l 1
 274 88 l 1
 274 88 453 770 453 770 c 1
 521 770 l 1
 701 88 l 1
 701 88 885 770 885 770 c 1
 945 770 l 1
 945 770 800 261 727 0 c 1
 676 0 l 1
 676 0 487 693 487 693 c 1
 299 0 l 1
EndSplineSet
Validated: 1
EndChar

StartChar: X
Encoding: 88 88 55
Width: 641
Flags: MW
DStem2: 116 770 41 770 0.539209 -0.842172<0 385.019 489.449 872.244> 41 0 120 0 0.537655 0.843165<42.4747 423.655 528.208 913.226>
LayerCount: 2
Fore
SplineSet
532 770 m 1
 609 770 l 1
 363 384 l 1
 363 384 609 0 609 0 c 1
 531 0 l 1
 324 322 l 1
 120 0 l 1
 41 0 l 1
 285 384 l 1
 41 770 l 1
 116 770 l 1
 324 446 l 1
 532 770 l 1
EndSplineSet
Validated: 1
EndChar

StartChar: Y
Encoding: 89 89 56
Width: 601
Flags: MW
VStem: 276 59<0 371>
DStem2: 94 770 22 770 0.537012 -0.843574<0 394.757> 306 437 335 371 0.535505 0.844532<0 395.827>
LayerCount: 2
Fore
SplineSet
520 770 m 1
 588 770 l 1
 335 371 l 1
 335 0 l 1
 276 0 l 1
 276 371 l 1
 22 770 l 1
 94 770 l 1
 306 437 l 1
 520 770 l 1
EndSplineSet
Validated: 1
EndChar

StartChar: zero
Encoding: 48 48 57
Width: 596
Flags: W
HStem: -15 55<217.145 386.855> 512 56<217.145 386.855>
VStem: 65 55<151.081 400.98> 484 55<151.081 400.98>
LayerCount: 2
Fore
SplineSet
65 276 m 3
 65 499 188 568 302 568 c 3
 416 568 539 499 539 276 c 3
 539 53 416 -15 302 -15 c 3
 188 -15 65 53 65 276 c 3
484 276 m 3
 484 458 389 512 302 512 c 3
 215 512 120 458 120 276 c 3
 120 94 215 40 302 40 c 3
 389 40 484 94 484 276 c 3
EndSplineSet
Validated: 1
Substitution2: "'lnum' Lining Figures in Latin lookup 1 subtable" zero.lnum
Substitution2: "'aalt' Access All Alternates in Latin lookup 0 subtable" zero.lnum
EndChar

StartChar: one
Encoding: 49 49 58
Width: 349
Flags: MW
VStem: 203 61<0 503>
LayerCount: 2
Fore
SplineSet
264 0 m 1
 203 0 l 1
 203 503 l 1
 203 503 98 414 98 414 c 1
 60 458 l 1
 60 458 194 560 194 560 c 1
 264 560 l 1
 264 0 l 1
EndSplineSet
Validated: 1
Substitution2: "'lnum' Lining Figures in Latin lookup 1 subtable" one.lnum
Substitution2: "'aalt' Access All Alternates in Latin lookup 0 subtable" one.lnum
EndChar

StartChar: two
Encoding: 50 50 59
Width: 522
Flags: W
HStem: 0 57<138 469> 518 54<175.156 332.347>
VStem: 378 56<342.362 472.824>
LayerCount: 2
Fore
SplineSet
253 518 m 3
 171 518 122 454 101 423 c 1
 101 423 65 458 65 458 c 1
 95 505 155 571 254 572 c 3
 363 572 434 510 434 396 c 3
 434 276 226 111 138 57 c 1
 469 57 l 1
 469 0 l 1
 55 0 l 1
 55 55 l 1
 120 102 378 300 378 401 c 3
 378 483 322 518 253 518 c 3
EndSplineSet
Validated: 1
Substitution2: "'lnum' Lining Figures in Latin lookup 1 subtable" two.lnum
Substitution2: "'aalt' Access All Alternates in Latin lookup 0 subtable" two.lnum
EndChar

StartChar: three
Encoding: 51 51 60
Width: 529
Flags: W
HStem: -209 51<107.811 282.02> 215 51<280 349.149> 525 46<149.315 289.71>
VStem: 329 54<356.648 486.675> 419 53<-21.8699 146.699>
LayerCount: 2
Fore
SplineSet
92 450 m 1
 62 477 l 1
 62 477 121 571 226 571 c 3
 317 571 383 514 383 420 c 3
 383 359 336 297 280 266 c 1
 383 266 472 187 472 89 c 3
 472 -110 309 -209 194 -209 c 3
 120 -209 62 -171 43 -157 c 1
 80 -121 l 1
 80 -121 136 -158 194 -158 c 3
 290 -158 419 -78 419 80 c 3
 419 149 354 215 279 215 c 3
 223 215 174 202 150 195 c 1
 150 243 l 1
 246 281 329 342 329 428 c 3
 329 483 280 525 227 525 c 3
 151 525 107 471 92 450 c 1
EndSplineSet
Validated: 1
Substitution2: "'lnum' Lining Figures in Latin lookup 1 subtable" three.lnum
Substitution2: "'aalt' Access All Alternates in Latin lookup 0 subtable" three.lnum
EndChar

StartChar: four
Encoding: 52 52 61
Width: 607
Flags: W
HStem: 0 57<117 413 473 581>
VStem: 413 60<-209 0 57 456>
DStem2: 39 36 117 57 0.602188 0.798355<63.7361 560.527>
LayerCount: 2
Fore
SplineSet
581 57 m 1
 581 0 l 1
 473 0 l 1
 473 -209 l 1
 413 -209 l 1
 413 0 l 1
 39 0 l 1
 39 36 l 1
 435 561 l 1
 473 561 l 1
 473 57 l 1
 581 57 l 1
117 57 m 1
 413 57 l 1
 413 456 l 1
 117 57 l 1
EndSplineSet
Validated: 1
Substitution2: "'lnum' Lining Figures in Latin lookup 1 subtable" four.lnum
Substitution2: "'aalt' Access All Alternates in Latin lookup 0 subtable" four.lnum
EndChar

StartChar: five
Encoding: 53 53 62
Width: 582
Flags: W
HStem: -209 49<189.241 373.056> 249 55<177.787 377.848> 503 57<156 462>
VStem: 97 59<269 503> 468 53<-50.6726 160.731>
LayerCount: 2
Fore
SplineSet
156 503 m 1
 156 269 l 1
 183 291 236 304 286 304 c 3
 440 304 521 207 521 75 c 3
 521 -133 416 -209 274 -209 c 3
 167 -209 96 -150 77 -131 c 1
 77 -131 110 -89 110 -89 c 1
 110 -89 193 -160 274 -160 c 3
 388 -160 468 -103 468 81 c 3
 468 156 410 249 286 249 c 3
 237 249 187 249 151 213 c 1
 97 213 l 1
 97 560 l 1
 462 560 l 1
 462 503 l 1
 156 503 l 1
EndSplineSet
Validated: 1
Substitution2: "'lnum' Lining Figures in Latin lookup 1 subtable" five.lnum
Substitution2: "'aalt' Access All Alternates in Latin lookup 0 subtable" five.lnum
EndChar

StartChar: six
Encoding: 54 54 63
Width: 594
Flags: W
HStem: -15 48<231.532 392.514> 397 56<260.536 419.623> 714 51<268.309 426.201>
VStem: 69 53<232.712 492.673> 483 54<134.775 331.828>
LayerCount: 2
Fore
SplineSet
338 453 m 3
 445 453 537 396 537 233 c 3
 537 142 484 -15 313 -15 c 3
 158 -15 69 113 69 343 c 3
 69 570 185 765 344 765 c 3
 433 765 477 726 502 707 c 1
 464 669 l 1
 464 669 409 714 341 714 c 3
 190 714 122 483 122 340 c 3
 122 322 123 306 125 291 c 1
 194 429 282 453 338 453 c 3
313 33 m 3
 442 33 483 162 483 233 c 3
 483 357 415 397 338 397 c 3
 274 397 191 350 133 216 c 1
 155 99 218 33 313 33 c 3
EndSplineSet
Validated: 1
Substitution2: "'lnum' Lining Figures in Latin lookup 1 subtable" six.lnum
Substitution2: "'aalt' Access All Alternates in Latin lookup 0 subtable" six.lnum
EndChar

StartChar: seven
Encoding: 55 55 64
Width: 492
Flags: W
HStem: 496 65<51 395>
LayerCount: 2
Fore
SplineSet
51 496 m 1
 51 561 l 1
 464 561 l 1
 464 512 l 1
 384 344 143 -129 54 -191 c 1
 13 -152 l 1
 86 -95 297 293 395 496 c 1
 51 496 l 1
EndSplineSet
Validated: 1
Substitution2: "'lnum' Lining Figures in Latin lookup 1 subtable" seven.lnum
Substitution2: "'aalt' Access All Alternates in Latin lookup 0 subtable" seven.lnum
EndChar

StartChar: nine
Encoding: 57 57 65
Width: 594
Flags: W
HStem: -220 51<179.799 337.691> 92 56<186.377 345.464> 512 48<213.486 374.468>
VStem: 69 54<213.172 410.225> 484 53<52.327 312.288>
LayerCount: 2
Fore
SplineSet
268 92 m 3
 161 92 69 149 69 312 c 3
 69 403 122 560 293 560 c 3
 448 560 537 432 537 202 c 3
 537 -25 421 -220 262 -220 c 3
 173 -220 129 -181 104 -162 c 1
 142 -124 l 1
 142 -124 197 -169 265 -169 c 3
 416 -169 484 62 484 205 c 3
 484 223 483 239 481 254 c 1
 412 116 324 92 268 92 c 3
293 512 m 3
 164 512 123 383 123 312 c 3
 123 188 191 148 268 148 c 3
 332 148 415 195 473 329 c 1
 451 446 388 512 293 512 c 3
EndSplineSet
Validated: 1
Substitution2: "'lnum' Lining Figures in Latin lookup 1 subtable" nine.lnum
Substitution2: "'aalt' Access All Alternates in Latin lookup 0 subtable" nine.lnum
EndChar

StartChar: eight
Encoding: 56 56 66
Width: 568
Flags: W
HStem: -15 51<184.193 390.059> 719 46<191.762 382.482>
VStem: 70 53<89.2957 234.54> 90 53<537.983 674.202> 431 55<532.327 674.202> 451 55<90.8639 216.227>
DStem2: 233 388 269 363 0.856188 0.516665<-102.568 0 77.5736 205.336>
LayerCount: 2
Fore
SplineSet
486 607 m 3xd8
 486 505 382 425 323 389 c 1
 416 323 506 249 506 158 c 3
 506 23 396 -15 287 -15 c 3
 178 -15 70 28 70 158 c 3xe4
 70 260 164 345 233 388 c 1
 154 452 90 524 90 607 c 3
 90 726 193 765 287 765 c 3
 380 765 486 726 486 607 c 3xd8
451 158 m 3
 451 223 365 293 269 363 c 1
 197 316 123 238 123 154 c 3
 123 70 201 36 287 36 c 3
 373 36 451 68 451 158 c 3
275 424 m 1
 282 418 l 1
 291 423 l 2
 332 445 431 512 431 607 c 3
 431 695 356 719 287 719 c 3
 219 719 143 695 143 607 c 3xd8
 143 538 206 480 275 424 c 1
EndSplineSet
Validated: 1
Substitution2: "'lnum' Lining Figures in Latin lookup 1 subtable" eight.lnum
Substitution2: "'aalt' Access All Alternates in Latin lookup 0 subtable" eight.lnum
EndChar

StartChar: ampersand
Encoding: 38 38 67
Width: 870
Flags: W
HStem: -7 57<219.563 410.765 676.633 763.134> 727 43<247.603 433.406>
VStem: 63 64<125.532 270.65> 139 55<556.076 678.774> 484 55<556.804 680.003>
LayerCount: 2
Fore
SplineSet
63 195 m 3
 63 301 149 365 249 421 c 1
 184 493 139 553 139 612 c 3
 139 732 246 770 341 770 c 3
 437 770 539 732 539 612 c 3
 539 528 443 470 335 416 c 1
 386 359 482 257 548 189 c 1
 579 240 600 282 640 365 c 1
 682 344 l 1
 636 251 611 201 582 153 c 1
 639 97 686 62 700 56 c 0
 709 52 717 50 725 50 c 3
 747 50 765 67 786 107 c 1
 822 85 l 1
 787 9 750 -6 722 -6 c 3
 717 -6 712 -6 707 -5 c 0
 683 -2 624 38 550 107 c 1
 490 38 414 -7 305 -7 c 3
 206 -7 63 47 63 195 c 3
285 386 m 1
 180 333 127 272 127 187 c 3
 127 89 254 50 305 50 c 3
 397 50 461 93 513 145 c 1
 451 206 375 287 321 346 c 2
 285 386 l 1
484 612 m 3
 484 701 410 727 341 727 c 3
 273 727 194 701 194 612 c 3
 194 573 239 516 303 449 c 1
 397 496 484 545 484 612 c 3
EndSplineSet
Validated: 1
EndChar

StartChar: grave
Encoding: 96 96 68
Width: 329
Flags: MW
LayerCount: 2
Fore
SplineSet
78 756 m 1
 144 756 l 1
 261 626 l 1
 225 626 l 1
 78 756 l 1
EndSplineSet
Validated: 1
EndChar

StartChar: dollar
Encoding: 36 36 69
Width: 604
Flags: W
HStem: -16 60<217.15 294 333 412.943> 725 61<220.475 294 333 403.073>
VStem: 89 58<519.325 657.139> 294 39<-69 -15.4162 44 359 444 724 784.101 844> 500 58<123.068 268.969>
LayerCount: 2
Fore
SplineSet
294 -69 m 1
 294 -16 l 1
 189 -4 118 37 61 126 c 1
 61 126 104 163 104 163 c 1
 149 94 206 59 294 44 c 1
 294 372 l 1
 184 408 89 453 89 578 c 3
 89 739 216 779 294 786 c 1
 294 844 l 1
 333 844 l 1
 333 785 l 1
 408 776 461 748 505 700 c 1
 462 663 l 1
 432 692 394 713 333 724 c 1
 333 430 l 1
 447 393 558 340 558 200 c 3
 558 64 454 -7 333 -17 c 1
 333 -69 l 1
 294 -69 l 1
500 200 m 3
 500 285 425 326 333 359 c 1
 333 43 l 1
 426 54 500 106 500 200 c 3
147 578 m 3
 147 511 210 473 294 444 c 1
 294 725 l 1
 232 717 147 685 147 578 c 3
EndSplineSet
Validated: 1
EndChar

StartChar: braceright
Encoding: 125 125 70
Width: 454
Flags: W
HStem: -273 66<93.0389 207.979> 264 31<315.246 374> 766 66<94.3627 207.979>
VStem: 220 55<-198.187 179 325.835 756.752>
CounterMasks: 1 e0
LayerCount: 2
Fore
SplineSet
180 766 m 3
 141 766 114 760 99 754 c 1
 99 754 77 805 77 805 c 1
 77 805 134 832 180 832 c 3
 261 832 275 735 275 686 c 2
 275 380 l 2
 275 362 283 300 374 295 c 1
 374 264 l 1
 283 259 275 200 275 180 c 2
 275 -127 l 2
 275 -177 261 -273 180 -273 c 3
 136 -273 95 -256 77 -246 c 1
 77 -246 99 -195 99 -195 c 1
 99 -195 143 -207 180 -207 c 3
 213 -207 220 -154 220 -127 c 2
 220 179 l 2
 220 179 221 237 293 279 c 1
 221 319 220 375 220 379 c 2
 220 686 l 2
 220 713 213 766 180 766 c 3
EndSplineSet
Validated: 1
EndChar

StartChar: bar
Encoding: 124 124 71
Width: 230
Flags: W
VStem: 93 47<-267 832>
LayerCount: 2
Fore
SplineSet
140 -267 m 1
 93 -267 l 1
 93 832 l 1
 140 832 l 1
 140 -267 l 1
EndSplineSet
Validated: 1
EndChar

StartChar: at
Encoding: 64 64 72
Width: 1046
Flags: W
HStem: -202 61<412.718 701.094> 20 47<371.887 504.83 685.282 778.148> 528 46<496.566 636.204> 708 62<429.434 693.17>
VStem: 57 51<137.206 382.834> 294 51<95.3203 334.608> 636 49<71 131.468> 952 51<228.218 460.774>
LayerCount: 2
Fore
SplineSet
417 20 m 3
 330 20 294 93 294 201 c 3
 294 421 454 574 562 574 c 3
 608 574 657 557 718 465 c 1
 724 495 733 533 737 548 c 1
 788 538 l 1
 788 538 685 79 685 71 c 1
 743 71 952 103 952 347 c 3
 952 518 809 708 554 708 c 3
 319 708 108 489 108 258 c 3
 108 26 319 -141 554 -141 c 3
 656 -141 751 -120 884 -16 c 1
 919 -60 l 1
 759 -190 672 -202 554 -202 c 3
 290 -202 57 -7 57 258 c 3
 57 524 290 770 554 770 c 3
 842 770 1003 551 1003 347 c 3
 1003 76 761 20 687 20 c 3
 650 20 636 39 636 70 c 3
 636 77 639 100 646 137 c 1
 578 76 493 20 417 20 c 3
345 201 m 3
 345 117 366 67 417 67 c 3
 539 67 647 204 668 233 c 1
 707 408 l 1
 661 516 611 528 562 528 c 3
 475 528 345 396 345 201 c 3
EndSplineSet
Validated: 1
EndChar

StartChar: slash
Encoding: 47 47 73
Width: 338
Flags: MW
VStem: 29 285
DStem2: 29 0 83 0 0.287348 0.957826<15.5168 803.904>
LayerCount: 2
Fore
SplineSet
260 770 m 1
 314 770 l 1
 83 0 l 1
 29 0 l 1
 260 770 l 1
EndSplineSet
Validated: 1
EndChar

StartChar: exclam
Encoding: 33 33 74
Width: 278
Flags: W
HStem: -7 107<102.459 179.969>
VStem: 93 96<1.91211 91.1406> 105 71<480.692 821> 118 45<189 529.308>
LayerCount: 2
Fore
SplineSet
163 189 m 1x90
 118 189 l 1x90
 105 821 l 1
 176 821 l 1xa0
 163 189 l 1x90
93 47 m 7xc0
 93 77 114 100 142 100 c 7
 169 100 189 77 189 47 c 7
 189 16 169 -7 142 -7 c 7
 114 -7 93 16 93 47 c 7xc0
EndSplineSet
Validated: 1
EndChar

StartChar: parenleft
Encoding: 40 40 75
Width: 322
Flags: W
VStem: 67 55<52.4288 456.881>
LayerCount: 2
Fore
SplineSet
285 768 m 1
 290 714 l 1
 150 658 122 379 122 251 c 3
 122 126 158 -147 289 -211 c 1
 285 -265 l 1
 111 -228 67 109 67 251 c 3
 67 391 113 735 285 768 c 1
EndSplineSet
Validated: 1
EndChar

StartChar: backslash
Encoding: 92 92 76
Width: 348
Flags: W
HStem: 0 21G<259 319>
VStem: 34 285
DStem2: 88 770 34 770 0.287348 -0.957826<0 788.387>
LayerCount: 2
Fore
SplineSet
34 770 m 1
 88 770 l 1
 319 0 l 1
 265 0 l 1
 34 770 l 1
EndSplineSet
Validated: 1
EndChar

StartChar: parenright
Encoding: 41 41 77
Width: 322
Flags: W
VStem: 205 55<52.4288 449.762>
LayerCount: 2
Fore
SplineSet
37 714 m 1
 41 768 l 1
 214 735 260 391 260 251 c 3
 260 109 216 -228 41 -265 c 1
 39 -243 39 -231 37 -211 c 1
 169 -147 205 126 205 251 c 3
 205 376 169 649 37 714 c 1
EndSplineSet
Validated: 1
EndChar

StartChar: quotedbl
Encoding: 34 34 78
Width: 362
Flags: W
HStem: 676 93<61.1293 114.136 236.129 289.136>
VStem: 52 89<687.905 760.036> 227 89<687.905 760.036>
LayerCount: 2
Fore
SplineSet
52 723 m 3
 52 749 70 769 94 769 c 3
 127 769 141 736 141 695 c 3
 141 644 116 605 80 556 c 1
 58 568 l 1
 84 598 106 626 115 676 c 1
 77 676 52 696 52 723 c 3
227 723 m 3
 227 749 245 769 269 769 c 3
 302 769 316 736 316 695 c 3
 316 644 291 605 255 556 c 1
 233 568 l 1
 259 598 281 626 290 676 c 1
 252 676 227 696 227 723 c 3
EndSplineSet
Validated: 1
EndChar

StartChar: quotedblleft
Encoding: 8220 8220 79
Width: 362
Flags: W
HStem: 571 94<78.1562 132.262 253.156 307.262>
VStem: 52 90<580.031 652.223> 227 90<580.031 652.223>
LayerCount: 2
Fore
SplineSet
317 618 m 3
 317 591 298 571 274 571 c 3
 242 571 227 604 227 645 c 3
 227 697 252 735 288 784 c 1
 310 772 l 1
 279 737 261 711 253 665 c 1
 291 665 317 644 317 618 c 3
142 618 m 3
 142 591 123 571 99 571 c 3
 67 571 52 604 52 645 c 3
 52 697 77 735 113 784 c 1
 135 772 l 1
 104 737 86 711 78 665 c 1
 116 665 142 644 142 618 c 3
EndSplineSet
Validated: 1
EndChar

StartChar: quotedblright
Encoding: 8221 8221 80
Width: 362
Flags: W
HStem: 675 94<60.7378 114.844 235.738 289.844>
VStem: 51 90<687.777 759.969> 226 90<687.777 759.969>
LayerCount: 2
Fore
SplineSet
226 722 m 3
 226 749 245 769 269 769 c 3
 301 769 316 736 316 695 c 3
 316 643 291 605 255 556 c 1
 233 568 l 1
 264 603 282 629 290 675 c 1
 252 675 226 696 226 722 c 3
51 722 m 3
 51 749 70 769 94 769 c 3
 126 769 141 736 141 695 c 3
 141 643 116 605 80 556 c 1
 58 568 l 1
 89 603 107 629 115 675 c 1
 77 675 51 696 51 722 c 3
EndSplineSet
Validated: 1
EndChar

StartChar: asciitilde
Encoding: 126 126 81
Width: 636
Flags: W
HStem: 306 49<303.572 540.596> 342 50<109.906 328.287>
LayerCount: 2
Fore
SplineSet
85 311 m 1x40
 62 347 l 1
 62 347 136 392 207 392 c 3x40
 238 392 277 383 316 373 c 0
 352 365 397 355 435 355 c 3
 487 355 545 377 562 386 c 1
 583 348 l 1
 566 338 504 306 438 306 c 3x80
 410 306 363 313 315 325 c 8
 275 335 242 342 211 342 c 0
 148 342 99 318 85 311 c 1x40
EndSplineSet
Validated: 1
EndChar

StartChar: quotesingle
Encoding: 39 39 82
Width: 191
Flags: W
HStem: 677 93<61.4239 115.422>
VStem: 52 90<688.905 760.224>
LayerCount: 2
Fore
SplineSet
52 724 m 3
 52 750 71 770 94 770 c 3
 127 770 142 737 142 696 c 3
 142 645 117 606 81 557 c 1
 81 557 58 569 58 569 c 1
 89 606 108 635 116 677 c 1
 78 677 52 697 52 724 c 3
EndSplineSet
Validated: 1
EndChar

StartChar: plus
Encoding: 43 43 83
Width: 634
Flags: MW
HStem: 248 49<54 297 335 588>
VStem: 297 38<0 248 297 544>
LayerCount: 2
Fore
SplineSet
335 0 m 1
 297 0 l 1
 297 248 l 1
 54 248 l 1
 54 297 l 1
 297 297 l 1
 297 544 l 1
 335 544 l 1
 335 297 l 1
 588 297 l 1
 588 248 l 1
 335 248 l 1
 335 0 l 1
EndSplineSet
Validated: 1
EndChar

StartChar: bracketright
Encoding: 93 93 84
Width: 343
Flags: W
HStem: -267 41<77 200> 729 41<77 200>
VStem: 200 56<-226 729>
LayerCount: 2
Fore
SplineSet
77 -267 m 1
 77 -226 l 1
 200 -226 l 1
 200 729 l 1
 77 729 l 1
 77 770 l 1
 256 770 l 1
 256 -267 l 1
 77 -267 l 1
EndSplineSet
Validated: 1
EndChar

StartChar: percent
Encoding: 37 37 85
Width: 987
Flags: W
HStem: -15 47<684.078 834.188> 347 47<683.388 834.307> 370 47<166.765 316.764> 732 47<166.074 316.883>
VStem: 62 57<470.723 680.043> 364 57<469.407 678.383> 580 56<85.7233 293.528> 882 56<84.407 293.383>
DStem2: 173 -48 240 -48 0.559126 0.829082<37.4615 1040.91>
LayerCount: 2
Fore
SplineSet
62 575 m 3xbf
 62 733 159 778 241 779 c 3
 325 779 421 734 421 573 c 3
 421 415 324 370 242 370 c 3
 160 370 62 416 62 575 c 3xbf
755 815 m 1
 822 815 l 1
 822 815 240 -48 240 -48 c 1
 173 -48 l 1
 173 -48 755 815 755 815 c 1
241 732 m 3
 178 732 119 705 119 575 c 3
 119 444 179 417 242 417 c 3
 305 417 363 442 364 573 c 3
 364 706 305 732 241 732 c 3
580 190 m 3
 580 348 676 393 758 394 c 3xdf
 843 394 938 349 938 188 c 3
 938 30 842 -15 759 -15 c 3
 677 -15 580 31 580 190 c 3
758 347 m 3
 696 347 636 320 636 190 c 3
 636 59 697 32 759 32 c 3
 822 32 881 57 882 188 c 3
 882 321 822 347 758 347 c 3
EndSplineSet
Validated: 1
EndChar

StartChar: equal
Encoding: 61 61 86
Width: 645
Flags: W
HStem: 172 49<59 594> 337 48<59 594>
LayerCount: 2
Fore
SplineSet
594 385 m 1
 594 337 l 1
 59 337 l 1
 59 385 l 1
 594 385 l 1
594 221 m 1
 594 172 l 1
 59 172 l 1
 59 221 l 1
 594 221 l 1
EndSplineSet
Validated: 1
EndChar

StartChar: bracketleft
Encoding: 91 91 87
Width: 343
Flags: W
HStem: -267 41<148 271> 729 41<148 271>
VStem: 92 56<-226 729>
LayerCount: 2
Fore
SplineSet
271 770 m 1
 271 729 l 1
 148 729 l 1
 148 -226 l 1
 271 -226 l 1
 271 -267 l 1
 92 -267 l 1
 92 770 l 1
 271 770 l 1
EndSplineSet
Validated: 1
EndChar

StartChar: numbersign
Encoding: 35 35 88
Width: 809
Flags: W
HStem: 0 21G<154 198 411 455> 245 54<58 214 272 471 529 705> 501 53<115 277 335 534 591 762>
DStem2: 154 0 198 0 0.239568 0.97088<10.541 252.24 318.562 515.878 581.229 793.095> 411 0 455 0 0.239568 0.97088<10.541 252.24 318.562 515.878 580.99 792.856>
LayerCount: 2
Fore
SplineSet
101 501 m 1
 115 554 l 1
 290 554 l 1
 290 554 344 770 344 770 c 1
 388 770 l 1
 335 554 l 1
 547 554 l 1
 547 554 600 770 600 770 c 1
 645 770 l 1
 591 554 l 1
 775 554 l 1
 775 554 762 501 762 501 c 1
 578 501 l 1
 529 299 l 1
 719 299 l 1
 719 299 705 245 705 245 c 1
 515 245 l 1
 515 245 455 0 455 0 c 1
 411 0 l 1
 471 245 l 1
 259 245 l 1
 259 245 198 0 198 0 c 1
 154 0 l 1
 214 245 l 1
 45 245 l 1
 45 245 58 299 58 299 c 1
 228 299 l 1
 277 501 l 1
 101 501 l 1
321 501 m 1
 272 299 l 1
 484 299 l 1
 534 501 l 1
 321 501 l 1
EndSplineSet
Validated: 1
EndChar

StartChar: less
Encoding: 60 60 89
Width: 684
Flags: W
HStem: 1 21G<619 619>
DStem2: 80 309 119 277 0.911002 0.412402<22.3322 571.036> 119 277 80 245 0.911002 -0.412402<0 548.704>
LayerCount: 2
Fore
SplineSet
80 245 m 1
 80 309 l 1
 80 309 619 553 619 553 c 1
 619 503 l 1
 119 277 l 1
 619 51 l 1
 619 1 l 1
 619 1 80 245 80 245 c 1
EndSplineSet
Validated: 1
EndChar

StartChar: greater
Encoding: 62 62 90
Width: 684
Flags: W
HStem: 1 21G<75 75>
DStem2: 75 51 75 1 0.911002 0.412402<0 547.793>
LayerCount: 2
Fore
SplineSet
614 309 m 1
 614 245 l 1
 614 245 75 1 75 1 c 1
 75 51 l 1
 574 277 l 1
 574 277 75 503 75 503 c 1
 75 553 l 1
 75 553 614 309 614 309 c 1
EndSplineSet
Validated: 1
EndChar

StartChar: asterisk
Encoding: 42 42 91
Width: 602
Flags: W
VStem: 287 37<538 770>
DStem2: 73 623 56 577 0.929372 -0.369143<1.18126 230.263> 339 492 305 472 0.632058 -0.774921<0 223.588> 324 538 339 492 0.932005 0.362446<0 228.03>
LayerCount: 2
Fore
SplineSet
56 577 m 1
 73 623 l 1
 287 538 l 1
 287 538 285 770 285 770 c 1
 326 770 l 1
 324 538 l 1
 324 538 536 622 536 622 c 1
 555 576 l 1
 339 492 l 1
 339 492 488 325 488 325 c 1
 488 325 451 293 451 293 c 1
 305 472 l 1
 160 292 l 1
 160 292 120 325 120 325 c 1
 270 492 l 1
 56 577 l 1
EndSplineSet
Validated: 1
EndChar

StartChar: emdash
Encoding: 8212 8212 92
Width: 775
Flags: W
HStem: 249 47<59 727>
LayerCount: 2
Fore
SplineSet
727 296 m 1
 727 249 l 1
 59 249 l 1
 59 296 l 1
 727 296 l 1
EndSplineSet
Validated: 1
EndChar

StartChar: minus
Encoding: 8722 8722 93
Width: 644
Flags: W
HStem: 248 49<59 593>
LayerCount: 2
Fore
SplineSet
593 297 m 1
 593 248 l 1
 59 248 l 1
 59 297 l 1
 593 297 l 1
EndSplineSet
Validated: 1
EndChar

StartChar: a
Encoding: 97 97 94
Width: 548
Flags: W
HStem: -12 51<145.272 289.986> 507 55<230.711 384.085>
VStem: 59 54<69.6982 203.131> 409 55<133.843 283 331.1 479.822>
DStem2: 251 309 256 257 0.985866 0.167533<-116.227 151.411>
LayerCount: 2
Fore
SplineSet
329 507 m 3
 254 507 149 451 109 429 c 1
 79 475 l 1
 120 499 236 562 341 562 c 3
 447 562 464 460 464 409 c 2
 464 102 l 1
 464 79 479 45 515 27 c 1
 515 27 476 -9 476 -9 c 1
 440 8 419 49 409 95 c 1
 349 31 275 -12 204 -12 c 3
 184 -12 59 -2 59 133 c 3
 59 202 87 286 251 309 c 0
 328 320 377 328 409 336 c 1
 409 409 l 2
 409 434 403 507 329 507 c 3
200 39 m 3
 288 39 363 101 409 158 c 1
 409 283 l 1
 385 278 337 270 293 263 c 2
 256 257 l 1
 132 238 113 185 113 133 c 3
 113 53 182 39 200 39 c 3
EndSplineSet
Validated: 1
EndChar

StartChar: b
Encoding: 98 98 95
Width: 610
Flags: W
HStem: -12 58<253.758 416.088> 0 21G<90 145> 501 61<253.894 422.029>
VStem: 90 55<0 74 123.041 411.14 450 820> 507 56<158.962 401.12>
LayerCount: 2
Fore
SplineSet
353 562 m 3x78
 497 562 563 430 563 284 c 3
 563 97 478 -12 339 -12 c 3xb8
 290 -12 217 15 145 74 c 1
 145 0 l 1
 90 0 l 1
 90 820 l 1
 145 820 l 1
 145 450 l 1
 180 511 267 562 353 562 c 3x78
353 501 m 3
 245 501 181 438 145 382 c 1
 145 143 l 1
 200 88 281 46 339 46 c 3
 440 46 507 138 507 284 c 3
 507 394 455 501 353 501 c 3
EndSplineSet
Validated: 1
EndChar

StartChar: c
Encoding: 99 99 96
Width: 494
Flags: W
HStem: -12 52<210.716 362.157> 509 53<217.607 364.468>
VStem: 60 56<153.065 386.424>
LayerCount: 2
Fore
SplineSet
289 562 m 3
 381 562 434 499 447 483 c 1
 413 449 l 1
 413 449 363 509 287 509 c 3
 208 509 116 428 116 265 c 3
 116 145 181 40 282 40 c 3
 321 40 366 55 421 103 c 1
 421 103 456 67 456 67 c 1
 382 -5 328 -12 282 -12 c 3
 148 -12 60 109 60 265 c 3
 60 472 185 562 289 562 c 3
EndSplineSet
Validated: 1
EndChar

StartChar: quoteleft
Encoding: 8216 8216 97
Width: 191
Flags: W
HStem: 571 94<78.1562 132.262>
VStem: 52 90<580.031 652.223>
LayerCount: 2
Fore
SplineSet
142 618 m 3
 142 591 123 571 99 571 c 3
 67 571 52 604 52 645 c 3
 52 697 77 735 113 784 c 1
 135 772 l 1
 104 737 86 711 78 665 c 1
 116 665 142 644 142 618 c 3
EndSplineSet
Validated: 1
EndChar

StartChar: quoteright
Encoding: 8217 8217 98
Width: 191
Flags: W
HStem: 675 94<60.7378 114.844>
VStem: 51 90<687.777 759.969>
LayerCount: 2
Fore
SplineSet
51 722 m 3
 51 749 70 769 94 769 c 3
 126 769 141 736 141 695 c 3
 141 643 116 605 80 556 c 1
 58 568 l 1
 89 603 107 629 115 675 c 1
 77 675 51 696 51 722 c 3
EndSplineSet
Validated: 1
EndChar

StartChar: questiondown
Encoding: 191 191 99
Width: 488
Flags: W
HStem: -274 51<148.015 320.464> 461 93<215.371 286.288>
VStem: 43 56<-175.765 -27.9403> 209 84<466.748 547.999> 282 49<209.125 310.344>
LayerCount: 2
Fore
SplineSet
99 -100 m 3xe8
 99 -145 111 -223 241 -223 c 3
 335 -223 395 -142 416 -110 c 1
 449 -142 l 1
 449 -142 359 -274 241 -274 c 3
 71 -274 43 -163 43 -100 c 3
 43 9 123 80 195 143 c 0
 243 185 282 225 282 257 c 3
 282 288 263 311 232 339 c 1
 232 339 272 372 272 372 c 1
 302 342 331 306 331 256 c 3
 331 193 286 148 229 95 c 0
 167 40 99 -26 99 -100 c 3xe8
293 507 m 0xf0
 293 480 274 461 250 461 c 0
 227 461 209 480 209 507 c 0
 209 534 227 554 250 554 c 0
 274 554 293 534 293 507 c 0xf0
EndSplineSet
Validated: 1
EndChar

StartChar: exclamdown
Encoding: 161 161 100
Width: 278
Flags: W
HStem: 453 107<102.031 179.541>
VStem: 93 96<461.543 550.771> 106 71<-269 71.3077> 119 45<22.6923 363>
LayerCount: 2
Fore
SplineSet
119 363 m 1x90
 164 363 l 1x90
 177 -269 l 1
 106 -269 l 1xa0
 119 363 l 1x90
189 505 m 3xc0
 189 475 168 453 140 453 c 3
 113 453 93 475 93 505 c 3
 93 536 113 560 140 560 c 3
 168 560 189 536 189 505 c 3xc0
EndSplineSet
Validated: 1
EndChar

StartChar: dieresis
Encoding: 168 168 101
Width: 418
Flags: W
HStem: 629 80<74.745 142.448 281.574 349.448>
VStem: 71 75<632.619 705.381> 278 75<632.237 705.763>
LayerCount: 2
Fore
SplineSet
71 669 m 3
 71 693 88 709 109 709 c 3
 130 709 146 693 146 669 c 3
 146 645 130 629 109 629 c 3
 88 629 71 645 71 669 c 3
278 669 m 3
 278 693 294 709 316 709 c 3
 337 709 353 693 353 669 c 3
 353 645 337 629 316 629 c 3
 294 629 278 645 278 669 c 3
EndSplineSet
Validated: 1
EndChar

StartChar: acute
Encoding: 180 180 102
Width: 329
Flags: MW
LayerCount: 2
Fore
SplineSet
190 756 m 1
 256 756 l 1
 109 626 l 1
 73 626 l 1
 190 756 l 1
EndSplineSet
Validated: 1
EndChar

StartChar: circumflex
Encoding: 710 710 103
Width: 482
Flags: W
HStem: 626 130
VStem: 80 329
DStem2: 80 626 137 626 0.72789 0.685694<41.4897 189.589> 271 756 244 731 0.72789 -0.685694<0 148.099>
LayerCount: 2
Fore
SplineSet
218 756 m 1
 271 756 l 1
 409 626 l 1
 352 626 l 1
 244 731 l 1
 137 626 l 1
 80 626 l 1
 80 626 218 756 218 756 c 1
EndSplineSet
Validated: 1
EndChar

StartChar: trademark
Encoding: 8482 8482 104
Width: 836
Flags: W
HStem: 401 47<596 612> 711 38<58 184 227 353>
VStem: 184 43<401 711> 414 41<401 644> 747 42<401 644>
DStem2: 612 448 624 401 0.406702 0.913561<0 223.795>
LayerCount: 2
Back
SplineSet
455 401 m 1
 414 401 l 1
 414 749 l 1
 458 749 l 1
 581 480 l 1
 580 483 l 1
 589 448 l 1
 618 448 l 1
 620 458 625 472 627 483 c 2
 626 480 l 1
 666 571 705 659 746 749 c 1
 789 749 l 1
 789 401 l 1
 747 401 l 1
 747 644 l 1
 717 646 l 1
 715 636 710 621 708 611 c 2
 709 613 l 1
 624 401 l 1
 581 401 l 1
 493 613 l 1
 495 611 l 1
 485 646 l 1
 455 644 l 1
 455 401 l 1
EndSplineSet
Fore
SplineSet
455 401 m 1
 414 401 l 1
 414 749 l 1
 458 749 l 1
 458 749 596 448 596 448 c 1
 612 448 l 1
 612 448 746 749 746 749 c 1
 789 749 l 1
 789 401 l 1
 747 401 l 1
 747 644 l 1
 747 644 722 644 722 644 c 1
 722 644 624 401 624 401 c 1
 581 401 l 1
 581 401 480 644 480 644 c 1
 455 644 l 1
 455 401 l 1
58 711 m 1
 58 749 l 1
 353 749 l 1
 353 711 l 1
 227 711 l 1
 227 401 l 1
 184 401 l 1
 184 711 l 1
 58 711 l 1
EndSplineSet
Validated: 1
EndChar

StartChar: ellipsis
Encoding: 8230 8230 105
Width: 600
Flags: W
HStem: -7 107<58.8198 136.675 265.459 342.969 471.753 549.608>
VStem: 49 97<1.91211 91.1406> 256 96<1.91211 91.1406> 462 97<1.91211 91.1406>
CounterMasks: 1 70
LayerCount: 2
Fore
SplineSet
49 47 m 3
 49 77 71 100 99 100 c 3
 125 100 146 77 146 47 c 3
 146 16 125 -7 99 -7 c 3
 71 -7 49 16 49 47 c 3
256 47 m 3
 256 77 277 100 305 100 c 3
 332 100 352 77 352 47 c 3
 352 16 332 -7 305 -7 c 3
 277 -7 256 16 256 47 c 3
462 47 m 3
 462 77 484 100 511 100 c 3
 538 100 559 77 559 47 c 3
 559 16 538 -7 511 -7 c 3
 484 -7 462 16 462 47 c 3
EndSplineSet
Validated: 1
EndChar

StartChar: fi
Encoding: 64257 64257 106
Width: 566
Flags: W
HStem: 0 21G<110 165 432 487> 498 52<37 110 165 432> 773 52<196.971 343.55>
VStem: 110 55<0 498 550 739.041> 432 55<0 498>
LayerCount: 2
Fore
SplineSet
165 650 m 2
 165 550 l 1
 487 550 l 1
 487 0 l 1
 432 0 l 1
 432 498 l 1
 165 498 l 1
 165 0 l 1
 110 0 l 1
 110 498 l 1
 37 498 l 1
 37 550 l 1
 110 550 l 1
 110 650 l 2
 110 751 155 825 263 825 c 3
 348 825 442 763 471 742 c 1
 435 707 l 1
 435 707 323 773 264 773 c 3
 181 773 167 720 165 650 c 2
EndSplineSet
Validated: 1
Ligature2: "'liga' Standard Ligatures in Latin lookup 2 subtable" f i
EndChar

StartChar: tilde
Encoding: 732 732 107
Width: 523
Flags: W
HStem: 631 47<275.226 428.062> 680 46<101.76 255.893>
LayerCount: 2
Fore
SplineSet
444 705 m 1
 459 677 l 1
 459 677 414 631 363 631 c 3
 296 631 239 680 167 680 c 3
 125 680 101 664 86 652 c 1
 71 680 l 1
 71 680 116 726 167 726 c 3
 233 726 291 678 363 678 c 3
 406 678 430 693 444 705 c 1
EndSplineSet
Validated: 1
EndChar

StartChar: bullet
Encoding: 8226 8226 108
Width: 324
Flags: W
HStem: 124 216<103.104 227.383>
VStem: 62 205<165.136 300.483>
LayerCount: 2
Fore
SplineSet
62 234 m 7
 62 295 107 340 166 340 c 7
 224 340 267 295 267 234 c 7
 267 171 224 124 166 124 c 7
 107 124 62 171 62 234 c 7
EndSplineSet
Validated: 1
EndChar

StartChar: copyright
Encoding: 169 169 109
Width: 865
Flags: W
HStem: 0 39<326.067 551.454> 179 44<378.321 509.083> 545 46<382.077 505.458> 731 40<326.067 551.454>
VStem: 58 29<289.838 480.715> 279 42<289.81 473.65> 790 29<289.838 480.715>
LayerCount: 2
Fore
SplineSet
58 385 m 3
 58 599 228 771 439 771 c 3
 649 771 819 599 819 385 c 3
 819 172 649 0 439 0 c 3
 228 0 58 172 58 385 c 3
442 591 m 3
 510 591 548 543 555 532 c 1
 546 524 536 513 529 506 c 1
 529 506 487 545 440 545 c 3
 387 545 321 493 321 377 c 3
 321 296 368 223 437 223 c 3
 466 223 496 231 535 264 c 1
 561 238 l 1
 508 186 470 179 437 179 c 3
 342 179 279 265 279 377 c 3
 279 525 370 591 442 591 c 3
87 385 m 3
 87 196 246 39 439 39 c 3
 631 39 790 196 790 385 c 3
 790 576 631 731 439 731 c 3
 246 731 87 576 87 385 c 3
EndSplineSet
Validated: 1
EndChar

StartChar: registered
Encoding: 174 174 110
Width: 865
Flags: W
HStem: 0 39<326.067 551.454> 354 31<335 423.02> 560 35<363.282 501.909> 731 40<326.067 551.454>
VStem: 58 29<289.838 480.715> 302 33<183 354 385 540.845 564 589> 530 32<423.39 529.116> 790 29<289.838 480.715>
LayerCount: 2
Fore
SplineSet
335 183 m 1
 302 183 l 1
 302 589 l 1
 335 589 l 1
 335 564 l 1
 385 591 416 595 449 595 c 3
 499 595 562 564 562 482 c 3
 562 403 515 371 460 355 c 1
 485 332 516 296 536 267 c 0
 556 240 580 210 611 183 c 1
 563 183 l 1
 544 197 523 226 504 255 c 0
 475 294 434 339 396 354 c 1
 335 354 l 1
 335 183 l 1
434 385 m 2
 476 386 529 405 530 482 c 3
 530 534 489 560 450 560 c 3
 409 560 369 553 335 532 c 1
 335 385 l 1
 434 385 l 2
58 385 m 3
 58 599 228 771 439 771 c 3
 649 771 819 599 819 385 c 3
 819 172 649 0 439 0 c 3
 228 0 58 172 58 385 c 3
87 385 m 3
 87 196 246 39 439 39 c 3
 631 39 790 196 790 385 c 3
 790 576 631 731 439 731 c 3
 246 731 87 576 87 385 c 3
EndSplineSet
Validated: 1
EndChar

StartChar: cent
Encoding: 162 162 111
Width: 494
Flags: W
HStem: -12 52<221.83 362.157> 509 53<217.607 312>
VStem: 60 56<151.487 386.424>
DStem2: 155 -92 183 -92 0.253533 0.967327<7.09893 104.366 166.388 619.054 671.711 769.13>
LayerCount: 2
Fore
SplineSet
350 652 m 1
 378 652 l 1
 352 552 l 1
 405 533 437 495 447 483 c 1
 413 449 l 1
 413 449 385 483 338 500 c 1
 221 54 l 1
 240 45 260 40 282 40 c 3
 321 40 366 55 421 103 c 1
 421 103 456 67 456 67 c 1
 382 -5 328 -12 282 -12 c 3
 255 -12 230 -7 208 2 c 1
 183 -92 l 1
 155 -92 l 1
 183 14 l 1
 106 57 60 152 60 265 c 3
 60 472 185 562 289 562 c 3
 302 562 314 561 326 559 c 1
 350 652 l 1
312 507 m 1
 304 508 296 509 287 509 c 3
 208 509 116 428 116 265 c 3
 116 183 146 109 197 69 c 1
 312 507 l 1
EndSplineSet
Validated: 1
EndChar

StartChar: caron
Encoding: 711 711 112
Width: 482
Flags: W
HStem: 621 129
VStem: 80 329
DStem2: 137 750 80 750 0.730527 -0.682884<0 147.265> 244 646 271 621 0.730527 0.682884<2.65213 149.917>
LayerCount: 2
Fore
SplineSet
271 621 m 1
 218 621 l 1
 80 750 l 1
 137 750 l 1
 244 646 l 1
 244 646 352 750 352 750 c 1
 409 750 l 1
 409 750 271 621 271 621 c 1
EndSplineSet
Validated: 1
EndChar

StartChar: dotlessi
Encoding: 305 305 122
Width: 237
Flags: W
HStem: 0 21G<93 148>
VStem: 93 55<0 550>
LayerCount: 2
Fore
SplineSet
93 550 m 1
 148 550 l 1
 148 0 l 1
 93 0 l 1
 93 550 l 1
EndSplineSet
Validated: 1
EndChar

StartChar: germandbls
Encoding: 223 223 158
Width: 636
Flags: W
HStem: 0 64<270.87 441.069> 411 55<268 359.406> 498 52<36 110> 779 58<219.484 393.531>
VStem: 110 55<0 498 550 725.708> 461 56<554.971 717.954> 529 56<145.075 327.323>
LayerCount: 2
Fore
SplineSet
268 411 m 1
 268 466 l 1
 347 472 461 505 461 647 c 3
 461 749 361 779 312 779 c 3
 229 779 172 746 165 660 c 1
 165 0 l 1
 110 0 l 1
 110 498 l 1
 36 498 l 1
 36 550 l 1
 110 550 l 1
 110 660 l 2
 110 785 198 837 312 837 c 3
 390 837 517 798 517 644 c 3
 517 554 477 493 423 453 c 1
 508 428 585 362 585 245 c 3
 585 135 551 0 326 0 c 3
 311 0 290 3 270 8 c 1
 270 68 l 1
 287 66 310 64 325 64 c 3
 491 64 529 149 529 245 c 3
 529 388 388 411 268 411 c 1
EndSplineSet
Validated: 1
EndChar

StartChar: ring
Encoding: 730 730 159
Width: 302
Flags: W
HStem: 607 34<113.657 193.145> 742 33<114.126 192.704>
VStem: 65 33<656.936 726.05> 208 33<656.498 726.488>
LayerCount: 2
Fore
SplineSet
65 692 m 3
 65 738 106 775 155 775 c 3
 203 775 241 738 241 692 c 3
 241 645 203 607 155 607 c 3
 106 607 65 645 65 692 c 3
98 692 m 3
 98 664 124 641 155 641 c 3
 183 641 208 664 208 692 c 3
 208 718 183 742 155 742 c 3
 124 742 98 718 98 692 c 3
EndSplineSet
Validated: 1
EndChar

StartChar: breve
Encoding: 728 728 162
Width: 419
Flags: W
HStem: 626 36<152.766 271.235>
VStem: 67 37<709.137 749> 321 36<711.284 749>
LayerCount: 2
Fore
SplineSet
216 626 m 3
 139 626 81 680 67 749 c 1
 104 749 l 1
 113 703 156 662 216 662 c 3
 269 662 310 704 321 749 c 1
 357 749 l 1
 345 678 291 626 216 626 c 3
EndSplineSet
Validated: 1
EndChar

StartChar: AE
Encoding: 198 198 163
Width: 964
Flags: W
HStem: 0 57<577 935> 269 57<285 517> 371 57<577 869> 714 56<577 921>
VStem: 517 60<57 269 326 371 428 714>
DStem2: 19 0 98 0 0.516131 0.85651<40.7743 351.176 416.513 868.581>
LayerCount: 2
Fore
SplineSet
935 0 m 1
 517 0 l 1
 517 269 l 1
 253 269 l 1
 253 269 98 0 98 0 c 1
 19 0 l 1
 483 770 l 1
 828 770 l 2
 868 770 902 772 921 773 c 1
 921 714 l 1
 577 714 l 1
 577 428 l 1
 869 428 l 1
 869 371 l 1
 577 371 l 1
 577 57 l 1
 843 57 l 2
 883 57 917 60 935 61 c 1
 935 0 l 1
517 714 m 1
 285 326 l 1
 517 326 l 1
 517 696 l 1
 517 714 l 1
EndSplineSet
Validated: 1
EndChar

StartChar: OE
Encoding: 338 338 164
Width: 943
Flags: W
HStem: -15 57<278.608 477.225> 0 57<556 914> 371 57<556 849> 714 56<556 900> 729 56<279.88 537.917>
VStem: 64 59<229.968 539.045> 497 59<62.5061 371 428 707.586>
LayerCount: 2
Fore
SplineSet
378 729 m 3xae
 264 729 123 646 123 386 c 3
 123 122 264 42 375 42 c 3
 416 42 459 51 497 74 c 1
 497 696 l 1
 459 719 418 729 378 729 c 3xae
476 770 m 1x36
 808 770 l 2
 848 770 882 772 900 773 c 1
 900 714 l 1
 556 714 l 1
 556 428 l 1
 849 428 l 1
 849 371 l 1
 556 371 l 1
 556 57 l 1
 822 57 l 2
 862 57 896 60 914 61 c 1
 914 0 l 1
 479 0 l 1x76
 446 -11 410 -15 375 -15 c 3
 231 -15 64 70 64 384 c 3
 64 697 231 785 378 785 c 3xae
 410 785 444 780 476 770 c 1x36
EndSplineSet
Validated: 1
EndChar

StartChar: fl
Encoding: 64258 64258 165
Width: 603
Flags: W
HStem: -12 52<518.385 574> 0 21G<111 166> 498 52<37 111 166 334> 773 52<191.099 339.389>
VStem: 111 55<0 498 550 746.248> 442 55<62.5918 820>
LayerCount: 2
Fore
SplineSet
166 650 m 2x7c
 166 550 l 1
 334 550 l 1
 334 498 l 1
 166 498 l 1
 166 0 l 1
 111 0 l 1
 111 498 l 1
 37 498 l 1
 37 550 l 1
 111 550 l 1
 111 650 l 2
 111 751 148 825 256 825 c 3
 294 825 335 810 367 795 c 1
 367 739 l 1
 342 751 291 773 256 773 c 3
 172 773 167 720 166 650 c 2x7c
442 820 m 1
 497 820 l 1
 497 141 l 2
 497 116 497 83 514 65 c 0
 529 51 550 43 576 40 c 1
 576 40 574 -12 574 -12 c 1xbc
 543 -11 499 -5 474 20 c 0
 442 52 442 104 442 141 c 2
 442 820 l 1
EndSplineSet
Validated: 1
LCarets2: 1 0
Ligature2: "'liga' Standard Ligatures in Latin lookup 2 subtable" f l
EndChar

StartChar: dotaccent
Encoding: 729 729 166
Width: 177
Flags: W
HStem: 688 79<55.745 123.448>
VStem: 52 75<691.448 763.574>
LayerCount: 2
Fore
SplineSet
52 728 m 3
 52 752 69 767 90 767 c 3
 111 767 127 752 127 728 c 3
 127 703 111 688 90 688 c 3
 69 688 52 703 52 728 c 3
EndSplineSet
Validated: 1
EndChar

StartChar: ae
Encoding: 230 230 167
Width: 882
Flags: W
HStem: -12 54<137.459 291.976 532.766 717.745> 290 56<451 776> 511 51<216.125 365.226 547.285 690.09>
VStem: 56 54<69.6982 202.903> 392 50<155.783 279>
DStem2: 248 309 253 257 0.991496 0.130134<-105.108 138.871>
LayerCount: 2
Fore
SplineSet
325 562 m 3
 384 562 420 518 442 468 c 1
 492 526 552 562 617 562 c 3
 815 562 831 358 831 320 c 2
 831 290 l 1
 442 290 l 1
 442 138 495 42 621 42 c 3
 692 42 731 58 799 134 c 1
 832 101 l 1
 753 7 691 -12 621 -12 c 3
 533 -12 465 36 419 109 c 1
 348 28 272 -12 202 -12 c 3
 181 -12 56 -2 56 133 c 3
 56 200 88 288 248 309 c 0
 323 319 359 325 392 334 c 1
 392 409 l 2
 392 434 386 511 313 511 c 3
 238 511 131 451 92 429 c 1
 62 475 l 1
 104 499 219 562 325 562 c 3
197 39 m 3
 281 39 358 93 407 154 c 1
 395 192 392 232 392 279 c 1
 363 274 312 266 253 257 c 0
 129 238 110 185 110 133 c 3
 110 53 179 39 197 39 c 3
617 508 m 3
 530 508 477 437 451 346 c 1
 776 346 l 1
 766 412 726 508 617 508 c 3
EndSplineSet
Validated: 1
EndChar

StartChar: Oslash
Encoding: 216 216 168
Width: 741
Flags: W
HStem: -15 57<278.503 475.629> 729 56<279.88 475.653>
VStem: 64 59<226.357 539.045> 628 59<230.035 541.667>
DStem2: 135 -36 183 -36 0.456488 0.889729<21.9114 92.572 165.917 804.129 875.671 945.442>
LayerCount: 2
Fore
SplineSet
565 806 m 1
 615 806 l 1
 569 717 l 1
 637 658 686 555 687 386 c 3
 687 71 530 -15 375 -15 c 3
 322 -15 265 -4 215 27 c 1
 183 -36 l 1
 135 -36 l 1
 180 53 l 1
 112 112 64 214 64 384 c 3
 64 697 231 785 378 785 c 3
 430 785 484 774 533 744 c 1
 565 806 l 1
378 729 m 3
 264 729 123 646 123 386 c 3
 123 251 159 165 210 112 c 1
 506 690 l 1
 466 717 421 729 378 729 c 3
540 660 m 1
 244 83 l 1
 286 54 333 42 375 42 c 3
 495 42 627 121 628 384 c 3
 628 519 591 607 540 660 c 1
EndSplineSet
Validated: 1
EndChar

StartChar: oe
Encoding: 339 339 169
Width: 957
Flags: W
HStem: -12 49<211.888 372.301 621.945 787.018> 290 56<529 854> 512 50<211.888 371.225 627.118 764.514>
VStem: 59 56<151.062 401.654> 468 52<153.268 290>
LayerCount: 2
Fore
SplineSet
468 275 m 3
 468 443 378 512 292 512 c 3
 205 512 115 448 115 275 c 3
 115 104 205 37 292 37 c 3
 378 37 468 101 468 275 c 3
59 275 m 3
 59 486 175 562 292 562 c 3
 374 562 457 524 498 426 c 1
 536 508 605 562 695 562 c 3
 893 562 909 358 909 320 c 2
 909 290 l 1
 520 290 l 1
 520 285 520 279 520 274 c 3
 520 135 582 42 699 42 c 3
 754 42 806 50 877 134 c 1
 910 101 l 1
 823 2 771 -12 699 -12 c 3
 599 -12 531 40 495 118 c 1
 453 24 373 -12 292 -12 c 3
 175 -12 59 58 59 275 c 3
695 508 m 3
 608 508 555 437 529 346 c 1
 854 346 l 1
 844 412 804 508 695 508 c 3
EndSplineSet
Validated: 1
EndChar

StartChar: cedilla
Encoding: 184 184 170
Width: 311
Flags: MW
HStem: -209 26<100.964 192.618>
VStem: 209 34<-170.365 -100.435>
LayerCount: 2
Fore
SplineSet
209 -137 m 3
 209 -101 179 -84 132 -83 c 1
 132 -83 178 -1 178 -1 c 1
 201 -1 l 1
 167 -71 l 1
 212 -77 243 -95 243 -137 c 3
 243 -174 217 -209 150 -209 c 3
 115 -209 89 -190 74 -178 c 1
 87 -161 l 1
 101 -172 120 -183 150 -183 c 3
 192 -183 209 -159 209 -137 c 3
132 -83 m 1
 132 -83 l 1
EndSplineSet
Validated: 1
EndChar

StartChar: oslash
Encoding: 248 248 171
Width: 572
Flags: W
HStem: -12 49<210.762 371.499> 512 50<211.888 371.214>
VStem: 59 56<150.573 401.654> 468 56<147.608 398.841>
DStem2: 106 -33 154 -33 0.458716 0.888583<22.0184 76.7173 140.889 577.062 639.799 693.239>
LayerCount: 2
Fore
SplineSet
59 275 m 3
 59 486 175 562 292 562 c 3
 329 562 367 554 400 536 c 1
 424 583 l 1
 472 583 l 1
 435 512 l 1
 487 468 524 392 524 275 c 3
 524 62 408 -12 292 -12 c 3
 253 -12 214 -4 179 15 c 1
 154 -33 l 1
 106 -33 l 1
 143 39 l 1
 93 82 59 157 59 275 c 3
375 488 m 1
 349 504 320 512 292 512 c 3
 205 512 115 448 115 275 c 3
 115 190 138 130 171 92 c 1
 375 488 l 1
409 460 m 1
 204 63 l 1
 231 45 262 37 292 37 c 3
 378 37 468 101 468 275 c 3
 468 362 444 422 409 460 c 1
EndSplineSet
Validated: 1
EndChar

StartChar: ogonek
Encoding: 731 731 172
Width: 304
Flags: W
HStem: -160 35<108.344 208.398>
VStem: 72 24<-106.779 -38.6955>
LayerCount: 2
Fore
SplineSet
72 -81 m 3
 72 -35 120 11 140 28 c 1
 140 28 151 20 151 20 c 1
 151 20 96 -35 96 -79 c 3
 96 -111 129 -125 154 -125 c 3
 178 -125 196 -118 212 -105 c 1
 234 -124 l 1
 213 -145 184 -160 154 -160 c 3
 118 -160 72 -134 72 -81 c 3
EndSplineSet
Validated: 1
EndChar

StartChar: periodcentered
Encoding: 183 183 173
Width: 231
Flags: W
HStem: 221 99<79.752 154.723>
VStem: 72 90<228.58 312.808>
LayerCount: 2
Fore
SplineSet
72 272 m 3
 72 300 92 320 119 320 c 3
 143 320 162 300 162 272 c 3
 162 242 143 221 119 221 c 3
 92 221 72 242 72 272 c 3
EndSplineSet
Validated: 1
EndChar

StartChar: Eth
Encoding: 208 208 174
Width: 761
Flags: W
HStem: 0 57<214 493.01> 377 51<74 154 214 398> 719 56<215.351 486.523>
VStem: 154 60<57 377 428 710.993> 648 59<236.915 544.421>
LayerCount: 2
Fore
SplineSet
154 0 m 1
 154 377 l 1
 74 377 l 1
 74 428 l 1
 154 428 l 1
 154 759 l 1
 245 770 293 775 351 775 c 3
 533 775 707 717 707 380 c 3
 707 138 581 0 400 0 c 2
 154 0 l 1
398 428 m 1
 398 377 l 1
 214 377 l 1
 214 57 l 1
 400 57 l 2
 542 57 648 179 648 380 c 3
 648 580 585 719 353 719 c 3
 283 719 250 714 214 707 c 1
 214 428 l 1
 398 428 l 1
EndSplineSet
Validated: 1
EndChar

StartChar: eth
Encoding: 240 240 175
Width: 595
Flags: W
HStem: -8 56<204.458 371.907> 465 56<204.738 367.335> 722 56<154.047 283.405>
VStem: 59 56<147.329 353.315> 487 57<199.583 371.041>
DStem2: 229 632 258 613 0.54846 0.836177<0.0179823 101.24 170.859 222.171>
LayerCount: 2
Fore
SplineSet
252 778 m 3
 271 778 293 775 318 770 c 1
 318 770 351 818 351 818 c 1
 381 798 l 1
 353 755 l 1
 484 685 544 506 544 364 c 3
 544 128 451 -8 289 -8 c 3
 114 -8 59 147 59 241 c 3
 59 402 147 521 279 521 c 3
 339 521 409 488 486 417 c 1
 466 540 413 661 321 710 c 1
 321 710 258 613 258 613 c 1
 258 613 229 632 229 632 c 1
 284 717 l 1
 263 722 258 722 252 722 c 3
 197 722 166 708 140 692 c 1
 114 737 l 1
 145 757 187 778 252 778 c 3
289 48 m 3
 412 48 482 157 487 346 c 1
 424 427 355 465 279 465 c 3
 182 465 115 368 115 241 c 7
 115 168 157 48 289 48 c 3
EndSplineSet
Validated: 1
EndChar

StartChar: yen
Encoding: 165 165 176
Width: 601
Flags: MW
HStem: 172 49<88 276 335 521> 337 48<88 266 343 521>
VStem: 276 59<0 172 221 337>
DStem2: 94 770 21 770 0.536875 -0.843661<0 394.757> 306 437 343 385 0.536875 0.843661<0 395.831>
LayerCount: 2
Fore
SplineSet
521 221 m 1
 521 172 l 1
 335 172 l 1
 335 0 l 1
 276 0 l 1
 276 172 l 1
 88 172 l 1
 88 221 l 1
 276 221 l 1
 276 337 l 1
 88 337 l 1
 88 385 l 1
 266 385 l 1
 266 385 21 770 21 770 c 1
 94 770 l 1
 306 437 l 1
 520 770 l 1
 588 770 l 1
 343 385 l 1
 521 385 l 1
 521 337 l 1
 335 337 l 1
 335 221 l 1
 521 221 l 1
EndSplineSet
Validated: 1
EndChar

StartChar: Thorn
Encoding: 222 222 177
Width: 613
Flags: W
HStem: 0 21G<90 150> 137 61<231.579 413.395> 617 59<229.322 403.326>
VStem: 90 60<0 204 255.613 573.335 616 770> 500 56<300.361 520.639>
LayerCount: 2
Fore
SplineSet
150 0 m 1
 90 0 l 1
 90 770 l 1
 150 770 l 1
 150 616 l 1
 210 652 278 676 334 676 c 3
 465 676 556 573 556 426 c 3
 556 236 471 137 326 137 c 3
 262 137 203 167 150 204 c 1
 150 0 l 1
500 426 m 3
 500 538 426 617 304 617 c 3
 250 617 199 595 150 559 c 1
 150 272 l 1
 202 226 264 198 331 198 c 3
 431 198 500 272 500 426 c 3
EndSplineSet
Validated: 1
EndChar

StartChar: thorn
Encoding: 254 254 180
Width: 608
Flags: W
HStem: -12 58<264.152 414.088> 498 64<281.582 428.431>
VStem: 90 54<-270 84 137.396 376.454 432 778> 505 56<158.962 400.645>
LayerCount: 2
Fore
SplineSet
144 -270 m 1
 90 -270 l 1
 90 778 l 1
 144 778 l 1
 144 432 l 1
 204 510 285 562 371 562 c 3
 488 562 561 430 561 284 c 3
 561 97 476 -12 337 -12 c 3
 289 -12 214 27 144 84 c 1
 144 -270 l 1
371 498 m 3
 254 498 179 400 144 345 c 1
 144 158 l 1
 199 103 277 46 337 46 c 3
 438 46 505 138 505 284 c 3
 505 394 453 498 371 498 c 3
EndSplineSet
Validated: 1
EndChar

StartChar: sterling
Encoding: 163 163 181
Width: 575
Flags: W
HStem: -12 55<306.371 453.743> 273 51<97 173 239 391> 775 51<351.02 462.599>
DStem2: 142 108 196 106 0.198961 0.980007<7.02617 167.869 230.981 608.159>
LayerCount: 2
Fore
SplineSet
160 54 m 3
 113 54 84 13 73 -3 c 1
 34 18 l 1
 34 18 82 89 142 108 c 1
 173 273 l 1
 97 273 l 1
 97 324 l 1
 183 324 l 1
 211 466 246 636 263 704 c 1
 263 703 l 1
 289 803 370 826 404 826 c 3
 454 826 492 793 536 746 c 1
 501 718 l 1
 468 753 442 775 404 775 c 3
 382 775 331 760 315 690 c 1
 315 691 l 1
 298 630 262 444 239 324 c 1
 391 324 l 1
 391 273 l 1
 227 273 l 1
 196 106 l 1
 236 95 263 85 286 74 c 0
 320 58 355 43 392 43 c 3
 433 43 476 79 495 97 c 1
 528 64 l 1
 528 64 448 -12 392 -12 c 3
 346 -12 306 5 267 23 c 0
 232 39 197 54 160 54 c 3
EndSplineSet
Validated: 1
EndChar

StartChar: paragraph
Encoding: 182 182 182
Width: 718
Flags: W
HStem: 732 38<437 539 566 643>
VStem: 54 383<373.714 611.461> 409 28<-257 301> 539 27<-257 732>
LayerCount: 2
Fore
SplineSet
437 -257 m 1xb0
 409 -257 l 1
 409 301 l 1xb0
 409 301 315 233 245 233 c 3
 141 233 54 341 54 501 c 3xd0
 54 649 160 770 317 770 c 2
 643 770 l 1
 643 732 l 1
 566 732 l 1
 566 -257 l 1
 539 -257 l 1
 539 732 l 1
 437 732 l 1
 437 -257 l 1xb0
EndSplineSet
Validated: 1
EndChar

StartChar: zero.lnum
Encoding: 65537 -1 183
Width: 663
Flags: W
HStem: -16 64<253.751 424.538> 714 59<252.462 429.358>
VStem: 63 61<219.636 547.621> 552 60<210.703 547.621>
LayerCount: 2
Fore
SplineSet
63 379 m 3
 63 679 197 773 339 773 c 3
 482 773 612 679 612 379 c 3
 612 79 482 -16 339 -16 c 3
 197 -16 63 79 63 379 c 3
552 379 m 3
 552 618 462 714 339 714 c 3
 220 714 124 618 124 379 c 3
 124 140 226 48 339 48 c 3
 454 48 552 140 552 379 c 3
EndSplineSet
Validated: 1
EndChar

StartChar: one.lnum
Encoding: 65538 -1 184
Width: 349
Flags: MW
VStem: 205 61<0 700>
LayerCount: 2
Fore
SplineSet
266 0 m 1
 205 0 l 1
 205 700 l 1
 179 678 98 610 98 610 c 1
 59 655 l 1
 59 655 149 721 195 758 c 1
 266 758 l 1
 266 0 l 1
EndSplineSet
Validated: 1
EndChar

StartChar: two.lnum
Encoding: 65539 -1 185
Width: 522
Flags: W
HStem: 0 58<133 473> 714 59<176.162 336.209>
VStem: 398 55<512.122 655.99>
LayerCount: 2
Fore
SplineSet
257 714 m 3
 174 714 124 654 103 623 c 1
 88 638 67 658 67 658 c 1
 97 706 157 772 258 773 c 3
 369 773 453 707 453 590 c 3
 453 468 254 210 133 58 c 1
 473 58 l 1
 473 0 l 1
 54 0 l 1
 54 53 l 1
 54 53 398 448 398 588 c 3
 398 672 325 714 257 714 c 3
EndSplineSet
Validated: 1
EndChar

StartChar: three.lnum
Encoding: 65540 -1 186
Width: 529
Flags: W
HStem: -16 63<97.4235 287.908> 712 61<146.771 295.635>
VStem: 332 54<551.999 676.6> 422 54<177.198 345.922>
LayerCount: 2
Fore
SplineSet
92 651 m 1
 62 679 l 1
 62 679 132 773 227 773 c 3
 312 773 386 710 386 621 c 3
 386 559 334 506 282 465 c 1
 386 451 476 377 476 277 c 3
 476 76 311 -16 195 -16 c 3
 120 -16 62 23 42 37 c 1
 79 74 l 1
 79 74 136 47 195 47 c 3
 286 47 422 117 422 277 c 3
 422 347 356 413 281 413 c 3
 224 413 175 401 150 393 c 1
 150 442 l 1
 248 480 332 533 332 621 c 3
 332 677 282 712 228 712 c 3
 148 712 108 672 92 651 c 1
EndSplineSet
Validated: 1
EndChar

StartChar: four.lnum
Encoding: 65541 -1 187
Width: 607
Flags: W
HStem: 0 21G<416 477> 191 58<113.667 416 477 586>
VStem: 416 61<0 191 249 652>
DStem2: 38 227 139 277 0.602642 0.798012<48.3406 566.954>
LayerCount: 2
Fore
SplineSet
586 249 m 1
 586 191 l 1
 477 191 l 1
 477 0 l 1
 416 0 l 1
 416 191 l 1
 38 191 l 1
 38 227 l 1
 439 758 l 1
 477 758 l 1
 477 249 l 1
 586 249 l 1
158 249 m 1
 416 249 l 1
 416 652 l 1
 139 277 l 1
 101 240 l 1
 158 249 l 1
EndSplineSet
Validated: 1
EndChar

StartChar: five.lnum
Encoding: 65542 -1 188
Width: 582
Flags: W
HStem: -16 56<186.306 369.438> 448 55<186.996 380.191> 700 58<156 466>
VStem: 96 60<468 700> 472 53<156.572 358.41>
LayerCount: 2
Fore
SplineSet
156 700 m 1
 156 468 l 1
 196 486 237 503 287 503 c 3
 443 503 525 408 525 280 c 3
 525 70 419 -16 276 -16 c 3
 167 -16 95 45 77 63 c 1
 89 78 110 106 110 106 c 1
 110 106 194 40 276 40 c 3
 384 40 472 110 472 278 c 3
 472 354 413 448 287 448 c 3
 238 448 190 441 144 411 c 1
 96 411 l 1
 96 758 l 1
 466 758 l 1
 466 700 l 1
 156 700 l 1
EndSplineSet
Validated: 1
EndChar

StartChar: six.lnum
Encoding: 65543 -1 189
Width: 594
Flags: W
HStem: -16 55<232.151 395.059> 402 56<260.001 422.399> 712 61<275.799 438.682>
VStem: 68 50<281 451.371> 486 55<139.791 335.875>
LayerCount: 2
Fore
SplineSet
340 458 m 3
 448 458 541 401 541 236 c 3
 541 143 487 -16 315 -16 c 3
 158 -16 68 114 68 347 c 3
 68 576 185 773 346 773 c 3
 418 773 480 734 506 715 c 1
 493 700 468 677 468 677 c 1
 468 677 404 712 350 712 c 3
 178 712 121 442 118 281 c 1
 170 419 254 458 340 458 c 3
315 39 m 3
 445 39 486 164 486 236 c 3
 486 361 418 402 340 402 c 3
 276 402 195 364 129 224 c 1
 152 106 219 39 315 39 c 3
EndSplineSet
Validated: 1
EndChar

StartChar: seven.lnum
Encoding: 65544 -1 190
Width: 492
Flags: W
HStem: 692 66<51 398>
LayerCount: 2
Fore
SplineSet
51 692 m 1
 51 758 l 1
 468 758 l 1
 468 709 l 1
 387 539 143 60 54 -2 c 1
 12 37 l 1
 86 94 299 487 398 692 c 1
 51 692 l 1
EndSplineSet
Validated: 1
EndChar

StartChar: eight.lnum
Encoding: 65545 -1 191
Width: 568
Flags: W
HStem: -16 52<186.59 389.603> 726 47<192.251 385.006>
VStem: 69 53<91.4254 239.477> 89 54<543.634 681.296> 434 56<538.049 681.296> 454 55<91.4254 218.669>
LayerCount: 2
Fore
SplineSet
490 613 m 3xd8
 490 511 385 430 325 393 c 1
 419 327 509 252 509 160 c 3
 509 45 421 -16 288 -16 c 3
 155 -16 69 45 69 160 c 3xe4
 69 263 164 349 234 392 c 1
 155 457 89 529 89 613 c 3
 89 734 194 773 288 773 c 3
 383 773 490 734 490 613 c 3xd8
454 160 m 3
 454 225 367 296 271 367 c 1
 206 326 122 253 122 160 c 3
 122 74 196 36 288 36 c 3
 380 36 454 74 454 160 c 3
276 429 m 1
 293 428 l 1
 334 449 434 518 434 613 c 3
 434 703 358 726 288 726 c 3
 220 726 143 703 143 613 c 3xd8
 143 544 206 486 276 429 c 1
EndSplineSet
Validated: 1
EndChar

StartChar: nine.lnum
Encoding: 65546 -1 192
Width: 594
Flags: W
HStem: -16 61<166.318 329.201> 299 56<182.601 344.999> 718 55<209.941 372.849>
VStem: 64 55<421.125 617.209> 487 50<305.629 476>
LayerCount: 2
Fore
SplineSet
265 299 m 3
 157 299 64 356 64 521 c 3
 64 614 118 773 290 773 c 3
 447 773 537 643 537 410 c 3
 537 181 420 -16 259 -16 c 3
 187 -16 125 23 99 42 c 1
 112 57 137 80 137 80 c 1
 137 80 201 45 255 45 c 3
 427 45 484 315 487 476 c 1
 435 338 351 299 265 299 c 3
290 718 m 3
 160 718 119 593 119 521 c 3
 119 396 187 355 265 355 c 3
 329 355 410 393 476 533 c 1
 453 651 386 718 290 718 c 3
EndSplineSet
Validated: 1
EndChar

StartChar: ff
Encoding: 64256 64256 193
Width: 638
Flags: W
HStem: 0 21G<103 158 385 440> 498 52<30 103 158 385 440 608> 773 52<184.003 330.972 464.806 612.822>
VStem: 103 55<0 498 550 746.248> 385 55<0 498 550 718.876>
LayerCount: 2
Fore
SplineSet
440 650 m 2
 440 550 l 1
 608 550 l 1
 608 498 l 1
 440 498 l 1
 440 0 l 1
 385 0 l 1
 385 498 l 1
 158 498 l 1
 158 0 l 1
 103 0 l 1
 103 498 l 1
 30 498 l 1
 30 550 l 1
 103 550 l 1
 103 650 l 2
 103 751 141 825 249 825 c 3
 301 825 371 789 410 767 c 1
 439 804 477 825 530 825 c 7
 592 825 666 784 691 768 c 1
 655 732 l 1
 655 732 577 773 530 773 c 7
 446 773 441 720 440 650 c 2
158 650 m 2
 158 550 l 1
 385 550 l 1
 385 650 l 2
 385 673 387 696 392 720 c 0
 389 722 307 773 249 773 c 3
 165 773 160 720 158 650 c 2
EndSplineSet
Validated: 1
LCarets2: 1 0
Ligature2: "'liga' Standard Ligatures in Latin lookup 2 subtable" f f
EndChar

StartChar: f_f_i
Encoding: 64259 64259 194
Width: 837
Flags: MW
HStem: 498 52<34 108 163 389 444 711> 783 52<188.099 335.736 474.945 624.373>
VStem: 108 55<0 498 550 756.248> 389 55<0 498 550 728.876> 711 55<0 498>
LayerCount: 2
Fore
SplineSet
444 660 m 6
 444 550 l 5
 766 550 l 5
 766 0 l 5
 711 0 l 5
 711 498 l 5
 444 498 l 5
 444 0 l 5
 389 0 l 5
 389 498 l 5
 163 498 l 5
 163 0 l 5
 108 0 l 5
 108 498 l 5
 34 498 l 5
 34 550 l 5
 108 550 l 5
 108 660 l 6
 108 761 145 835 253 835 c 7
 306 835 380 797 417 775 c 5
 447 813 488 835 542 835 c 7
 627 835 720 773 749 752 c 5
 714 717 l 5
 714 717 602 783 543 783 c 7
 460 783 445 730 444 660 c 6
163 660 m 6
 163 550 l 5
 389 550 l 5
 389 660 l 6
 389 683 391 706 397 730 c 5
 397 730 312 783 253 783 c 7
 169 783 164 730 163 660 c 6
EndSplineSet
Validated: 1
LCarets2: 2 0 0
Ligature2: "'liga' Standard Ligatures in Latin lookup 2 subtable" f f i
EndChar

StartChar: f_f_l
Encoding: 64260 64260 195
Width: 379
Flags: W
HStem: -12 52<796.385 852> 0 21G<111 166 389 444> 498 52<37 111 166 389 444 612> 773 52<191.099 340.835 468.157 617.173>
VStem: 111 55<0 498 550 746.248> 389 55<0 498 550 720.013> 720 55<62.5918 820>
LayerCount: 2
Fore
SplineSet
720 820 m 1xbe
 775 820 l 1
 775 141 l 2
 775 116 775 83 792 65 c 0
 807 51 828 43 854 40 c 1
 854 40 852 -12 852 -12 c 1
 821 -11 777 -5 752 20 c 0
 720 52 720 104 720 141 c 2
 720 820 l 1xbe
444 650 m 2
 444 550 l 1
 612 550 l 1
 612 498 l 1
 444 498 l 1
 444 0 l 1
 389 0 l 1
 389 498 l 1
 315 498 166 498 166 498 c 1
 166 0 l 1
 111 0 l 1x7e
 111 498 l 1
 37 498 l 1
 37 550 l 1
 111 550 l 1
 111 650 l 2
 111 751 148 825 256 825 c 3
 318 825 391 785 416 768 c 1
 439 804 476 825 534 825 c 3
 572 825 614 810 646 795 c 1
 647 738 l 1
 623 750 570 773 534 773 c 3
 450 773 445 720 444 650 c 2
166 650 m 2
 166 550 l 1
 240 550 389 550 389 550 c 1
 389 650 l 2
 389 676 391 700 397 721 c 1
 373 742 296 773 256 773 c 3
 172 773 167 720 166 650 c 2
EndSplineSet
Validated: 1
LCarets2: 2 0 0
Ligature2: "'liga' Standard Ligatures in Latin lookup 2 subtable" f f l
EndChar

StartChar: fj
Encoding: 65547 -1 196
Width: 566
Flags: MW
HStem: 498 52<37 110 165 432> 783 52<196.971 343.55>
VStem: 110 55<0 498 550 749.041> 432 55<-153.682 498>
LayerCount: 2
Fore
SplineSet
165 660 m 2
 165 550 l 1
 487 550 l 1
 487 -55 l 2
 487 -173 427 -253 371 -280 c 1
 352 -220 l 1
 394 -201 432 -132 432 -55 c 2
 432 498 l 1
 165 498 l 1
 165 0 l 1
 110 0 l 1
 110 498 l 1
 37 498 l 1
 37 550 l 1
 110 550 l 1
 110 660 l 2
 110 761 155 835 263 835 c 3
 348 835 442 773 471 752 c 1
 435 717 l 1
 435 717 323 783 264 783 c 3
 181 783 167 730 165 660 c 2
EndSplineSet
Validated: 1
Ligature2: "'liga' Standard Ligatures in Latin lookup 2 subtable" f j
EndChar

StartChar: g
Encoding: 103 103 197
Width: 599
Flags: W
HStem: -285 55<198.936 414.427> 43 56<181.045 433.015> 204 46<212.493 381.814> 519 46<207.578 372.66> 560 56<428.694 555.1>
VStem: 64 54<-164.664 -21.9041> 83 55<308.699 457.567> 98 56<104.881 163.875> 447 55<310.942 459.827> 518 55<-139.328 -12.3326>
LayerCount: 2
Fore
SplineSet
138 392 m 3xf2c0
 138 265 235 250 293 250 c 3
 351 250 447 275 447 392 c 3
 447 485 351 519 293 519 c 3
 235 519 138 485 138 392 c 3xf2c0
98 116 m 3xe9c0
 98 149 133 189 178 225 c 1
 127 254 83 304 83 392 c 3
 83 515 214 565 293 565 c 3xf2c0
 311 565 337 560 367 553 c 1
 411 593 468 616 519 616 c 3
 532 616 549 614 565 610 c 1
 565 610 554 558 554 558 c 1
 542 560 532 560 519 560 c 3
 488 560 450 551 411 535 c 1
 462 503 502 457 502 392 c 3
 502 236 372 204 293 204 c 3
 275 204 254 205 227 211 c 1
 187 183 154 146 154 113 c 1xe9c0
 169 99 231 99 270 99 c 0
 280 99 293 99 293 99 c 1
 423 92 573 67 573 -62 c 3
 573 -183 487 -285 297 -285 c 3
 175 -285 64 -207 64 -112 c 3xecc0
 64 -25 104 11 159 51 c 1
 126 65 98 85 98 116 c 3xe9c0
297 -230 m 3
 448 -230 518 -152 518 -62 c 3
 518 22 395 36 293 42 c 1
 265 42 240 42 212 43 c 1
 158 9 118 -19 118 -112 c 3xe4c0
 118 -178 211 -230 297 -230 c 3
EndSplineSet
Validated: 1
EndChar

StartChar: e
Encoding: 101 101 198
Width: 563
Flags: W
HStem: -12 54<207.541 389.716> 290 56<123 448> 508 54<214.941 363.829>
VStem: 59 55<148.872 290>
LayerCount: 2
Fore
SplineSet
59 269 m 3
 59 430 149 562 289 562 c 3
 487 562 503 358 503 320 c 2
 503 290 l 1
 114 290 l 1
 114 285 114 279 114 274 c 3
 114 135 176 42 293 42 c 3
 348 42 400 50 471 134 c 1
 504 101 l 1
 417 2 365 -12 293 -12 c 3
 137 -12 59 117 59 269 c 3
289 508 m 3
 202 508 149 437 123 346 c 1
 448 346 l 1
 438 412 398 508 289 508 c 3
EndSplineSet
Validated: 1
EndChar

StartChar: f
Encoding: 102 102 199
Width: 379
Flags: MW
HStem: 498 52<37 111 166 334> 773 52<191.099 339.03>
VStem: 111 55<0 498 550 746.248>
LayerCount: 2
Fore
SplineSet
166 650 m 6
 166 550 l 5
 334 550 l 5
 334 498 l 5
 166 498 l 5
 166 0 l 5
 111 0 l 5
 111 498 l 5
 37 498 l 5
 37 550 l 5
 111 550 l 5
 111 650 l 6
 111 751 148 825 256 825 c 7
 319 825 392 784 417 768 c 5
 381 732 l 5
 381 732 303 773 256 773 c 7
 172 773 167 720 166 650 c 6
EndSplineSet
Validated: 1
EndChar

StartChar: dotlessj
Encoding: 567 567 254
Width: 206
Flags: MW
HStem: -285 21G 571 102 694 84
VStem: 52 55<-55 550>
LayerCount: 2
Fore
SplineSet
52 550 m 1
 107 550 l 1
 107 -55 l 2
 107 -173 47 -253 -9 -280 c 1
 -28 -220 l 1
 14 -201 52 -132 52 -55 c 2
 52 550 l 1
EndSplineSet
Validated: 1
EndChar

